<?xml version="1.0" standalone="no"?>
<!DOCTYPE svg PUBLIC "-//W3C//DTD SVG 20010904//EN"
 "http://www.w3.org/TR/2001/REC-SVG-20010904/DTD/svg10.dtd">
<svg version="1.0" xmlns="http://www.w3.org/2000/svg"
 width="770.000000pt" height="770.000000pt" viewBox="0 0 770.000000 770.000000"
 preserveAspectRatio="xMidYMid meet">
<metadata>
Created by potrace 1.14, written by Peter Selinger 2001-2017
</metadata>
<g transform="translate(0.000000,770.000000) scale(0.100000,-0.100000)"
fill="#000000" stroke="none">
<path d="M1388 7683 c6 -2 18 -2 25 0 6 3 1 5 -13 5 -14 0 -19 -2 -12 -5z"/>
<path d="M5728 5062 c-14 -2 -32 -10 -38 -18 -15 -18 -37 -18 -87 0 -29 10
-52 11 -84 5 -96 -20 -119 -22 -119 -9 0 11 -53 9 -145 -5 -11 -2 -32 -4 -47
-4 -18 -1 -28 -7 -28 -16 0 -8 -7 -15 -15 -15 -8 0 -15 -4 -15 -10 0 -5 -4
-10 -10 -10 -5 0 -10 11 -10 24 0 19 -4 22 -25 18 -16 -3 -25 -11 -25 -24 0
-12 -4 -16 -12 -12 -6 4 -16 1 -22 -7 -12 -15 -12 -15 -86 -17 -33 -1 -50 -6
-50 -15 0 -9 -17 -12 -60 -10 -33 1 -63 -3 -66 -9 -4 -7 -9 -6 -15 3 -6 10
-15 6 -37 -17 -32 -34 -52 -34 -45 -1 3 15 2 18 -4 9 -5 -7 -16 -10 -24 -7 -8
3 -25 -4 -38 -16 -20 -19 -34 -22 -99 -21 -45 1 -81 -3 -89 -10 -11 -9 -16 -9
-23 3 -7 11 -12 11 -22 1 -14 -14 -42 -17 -34 -3 8 12 -47 4 -89 -13 -20 -9
-33 -11 -30 -6 3 6 -1 10 -9 10 -9 0 -16 -6 -16 -12 0 -10 -3 -10 -9 0 -7 12
-19 12 -67 2 -32 -7 -64 -20 -71 -29 -11 -14 -12 -13 -13 7 0 13 -4 20 -10 17
-6 -4 -8 -10 -6 -13 2 -4 -19 -7 -47 -7 -73 1 -190 -14 -201 -25 -6 -6 -20
-10 -32 -10 -13 0 -26 -5 -29 -10 -4 -7 -21 -8 -43 -4 -21 3 -55 5 -77 4 -22
-2 -48 -3 -57 -3 -10 -1 -18 -5 -18 -9 0 -4 -5 -8 -11 -8 -16 0 -83 -32 -91
-44 -4 -6 -5 -13 -2 -17 7 -12 -63 -39 -104 -39 -22 0 -42 -4 -44 -10 -1 -5
-32 -12 -68 -14 -36 -3 -80 -12 -98 -21 -19 -10 -43 -14 -57 -11 -13 3 -27 1
-30 -4 -5 -7 -11 -8 -19 -1 -7 6 -42 7 -86 4 -41 -4 -88 -7 -105 -7 -16 -1
-35 -8 -42 -16 -10 -13 -13 -13 -25 1 -7 9 -26 20 -43 23 -44 10 -136 12 -141
4 -3 -4 -13 -2 -23 4 -30 19 -124 -2 -136 -29 -10 -24 -20 -29 -29 -14 -6 9
-111 5 -126 -4 -5 -3 -11 -1 -15 5 -3 5 -34 10 -69 10 -50 0 -67 4 -81 20 -14
16 -31 20 -81 20 -35 0 -66 -5 -70 -11 -4 -8 -9 -7 -14 2 -7 10 -20 10 -67 0
-32 -6 -71 -15 -88 -18 -16 -3 -33 -11 -38 -17 -5 -8 -11 -6 -20 5 -16 21
-155 27 -169 7 -7 -9 -11 -10 -14 -2 -6 14 -83 -7 -121 -31 -15 -10 -38 -14
-70 -10 -27 2 -94 7 -150 11 -90 6 -103 5 -109 -10 -7 -19 -24 -22 -24 -3 -1
29 -19 38 -93 43 -73 6 -77 5 -85 -17 l-9 -23 -6 24 c-5 18 -10 21 -29 16 -13
-4 -48 -9 -78 -11 -44 -3 -59 1 -73 16 -25 26 -131 28 -146 2 -9 -15 -12 -15
-20 -4 -7 11 -18 11 -61 2 -44 -10 -56 -9 -69 3 -19 17 -70 24 -89 12 -7 -4
-12 -2 -12 3 0 6 -7 11 -15 11 -8 0 -15 -5 -15 -11 0 -8 -4 -8 -13 -1 -17 14
-97 21 -119 10 -10 -5 -18 -16 -18 -26 -1 -15 -2 -15 -15 1 -15 21 -51 15 -72
-12 -15 -20 -18 -581 -3 -581 6 0 10 5 10 10 0 6 5 10 10 10 18 0 11 -18 -10
-25 -20 -6 -20 -15 -20 -555 l0 -550 28 -6 c43 -9 49 -12 24 -13 -15 -1 -26
-9 -29 -21 -3 -11 -9 -20 -14 -20 -5 0 -9 -400 -9 -933 0 -924 0 -934 20 -932
26 2 29 5 36 51 6 42 14 58 14 31 0 -9 9 -26 20 -37 16 -16 20 -17 20 -5 0 8
7 15 16 15 9 0 38 15 63 33 36 26 52 32 69 26 14 -5 24 -4 29 5 11 17 43 28
43 14 0 -7 4 -7 14 1 10 8 16 9 21 1 9 -15 28 -12 22 4 -6 16 11 26 31 19 6
-3 12 -11 12 -19 0 -9 5 -12 10 -9 6 4 8 10 5 15 -3 5 4 11 15 15 11 3 20 10
20 14 0 4 19 14 42 20 50 15 68 28 68 48 0 11 -7 13 -25 9 -14 -4 -25 -3 -25
2 0 5 -11 15 -25 22 -28 15 -29 18 -15 40 9 13 13 12 26 -5 12 -15 18 -16 21
-7 8 21 55 35 65 20 7 -10 11 -9 22 5 16 21 45 22 52 2 4 -8 10 -12 15 -9 5 3
7 10 4 15 -4 5 4 9 16 9 12 0 19 3 15 7 -4 5 -12 8 -17 8 -12 0 -12 20 1 21 6
1 13 3 18 4 4 1 11 2 16 1 21 -4 46 12 46 29 0 13 5 18 15 14 12 -5 13 -10 4
-20 -7 -9 -8 -14 -1 -14 5 0 15 15 21 33 9 24 14 28 20 18 5 -7 13 -11 19 -7
5 3 13 -2 17 -12 6 -15 8 -14 20 8 l13 25 11 -27 c5 -14 15 -29 21 -33 5 -3 8
-10 5 -15 -3 -5 4 -14 15 -20 17 -9 24 -7 41 12 19 21 20 21 15 3 -5 -17 -3
-16 14 5 l20 25 0 -22 c0 -13 5 -23 10 -23 6 0 10 11 10 25 0 17 5 25 18 25
28 0 40 -13 45 -50 4 -33 4 -33 5 8 2 44 8 55 52 99 17 17 31 22 47 18 16 -4
23 -1 23 9 0 26 25 24 37 -3 l11 -26 1 34 c1 28 4 33 21 28 13 -3 20 0 20 9 0
12 4 12 21 4 11 -7 32 -9 45 -6 13 4 24 2 24 -3 0 -5 14 4 31 21 23 23 33 28
42 19 15 -15 27 -14 27 4 0 9 9 15 23 15 22 0 71 43 73 64 0 6 2 21 2 33 2 25
29 56 43 47 5 -3 6 -11 2 -17 -4 -7 -8 -24 -8 -38 0 -36 42 -37 58 -2 7 17 13
20 18 11 6 -10 11 -10 20 -1 8 8 19 9 37 2 25 -10 60 -4 49 8 -10 9 13 44 24
37 5 -3 7 -14 4 -25 -6 -17 -3 -19 22 -14 15 4 38 7 50 9 26 2 63 33 63 53 0
7 9 13 21 13 12 0 39 20 65 47 47 51 50 58 32 69 -6 4 -8 3 -5 -3 4 -6 -4 -20
-17 -32 -22 -20 -24 -21 -30 -4 -4 9 -4 14 0 10 4 -4 13 -2 21 4 11 10 11 15
1 27 -10 13 -10 14 -1 8 7 -4 13 -2 13 3 0 6 6 11 14 11 9 0 14 18 15 62 1 34
3 63 4 65 2 1 19 4 40 6 l37 4 0 -41 c0 -22 -4 -48 -9 -55 -6 -10 -8 0 -4 27
4 27 2 42 -5 42 -6 0 -9 -6 -6 -14 3 -7 -2 -16 -10 -19 -19 -8 -21 -43 -3 -51
10 -5 10 -7 0 -12 -7 -3 -13 -10 -13 -15 0 -10 35 8 59 29 8 8 25 18 38 23 12
4 23 13 23 19 0 13 -17 13 -25 0 -11 -18 -25 -11 -25 13 0 28 26 67 46 67 8 0
14 -4 14 -9 0 -8 43 -9 71 -2 4 0 19 19 34 41 28 40 51 45 39 8 -4 -14 -2 -18
5 -14 6 4 11 3 11 -3 0 -8 -30 -34 -79 -68 -2 -2 -2 -6 2 -9 3 -4 20 5 37 20
17 14 36 26 41 26 5 0 11 11 15 25 5 22 7 23 22 9 14 -14 16 -14 25 2 6 10 22
28 36 40 14 12 41 35 60 52 19 16 41 28 48 25 7 -3 13 -1 13 4 0 5 16 15 35
22 19 7 35 17 35 22 0 14 38 11 43 -3 3 -10 7 -10 19 0 9 7 19 9 22 4 3 -5 27
-8 53 -5 58 4 83 23 33 23 -35 1 -35 1 -11 14 16 9 20 16 12 20 -6 4 -9 11 -6
16 3 5 0 12 -6 16 -6 4 -15 0 -20 -8 -8 -15 -69 -23 -69 -10 0 4 14 13 32 20
26 9 30 14 20 24 -10 10 -15 10 -22 -2 -8 -13 -10 -13 -10 2 0 20 16 32 25 18
12 -19 26 -10 19 13 l-7 22 23 -20 c19 -17 20 -21 6 -23 -9 -2 -14 -7 -11 -11
7 -12 56 0 62 15 3 8 16 11 39 7 30 -5 34 -3 34 16 0 12 6 21 14 21 11 0 16
-14 18 -47 3 -45 4 -46 21 -29 10 10 29 19 42 20 14 0 25 4 25 8 0 3 16 12 35
18 19 6 38 17 42 24 5 6 28 20 53 31 25 10 52 25 61 32 8 7 21 13 27 13 7 0
12 5 12 10 0 6 5 10 11 10 5 0 34 11 62 24 29 14 70 27 92 30 49 6 75 15 97
34 15 13 14 6 -5 -42 -13 -32 -32 -67 -42 -78 l-18 -21 -19 24 -19 24 6 -40
c7 -39 21 -59 37 -49 4 3 5 11 1 19 -3 11 -1 13 10 9 8 -3 17 -19 21 -35 9
-48 31 -30 32 27 1 70 2 74 19 68 9 -4 15 -1 15 7 0 10 3 10 11 2 14 -14 4
-47 -11 -38 -5 3 -10 3 -11 -2 0 -4 -2 -16 -4 -25 -4 -23 13 -34 21 -14 9 23
24 20 24 -4 0 -11 -7 -20 -15 -20 -8 0 -15 -8 -16 -17 -1 -10 -2 -27 -3 -38
-1 -11 -3 -30 -4 -42 -1 -15 -8 -23 -19 -22 -11 0 -13 3 -5 6 6 2 11 17 11 31
-1 15 -3 20 -6 11 -2 -9 -15 -22 -28 -29 -25 -13 -32 -30 -17 -44 4 -4 7 -11
8 -14 0 -4 7 -34 15 -67 13 -59 14 -59 19 -25 4 19 2 40 -2 46 -5 6 -4 22 1
35 10 24 10 24 10 -4 1 -34 21 -26 21 9 0 13 5 24 11 24 8 0 10 20 6 65 -3 47
-1 65 7 62 12 -4 13 -8 15 -59 1 -25 4 -29 11 -18 14 22 12 7 -5 -34 -14 -33
-14 -37 0 -43 9 -3 21 -1 28 6 17 17 35 13 42 -10 5 -14 2 -25 -6 -30 -12 -8
-12 -11 1 -18 17 -12 31 4 23 28 -4 14 -4 14 6 1 9 -13 13 -12 26 8 9 12 21
20 26 17 13 -9 11 -33 -3 -38 -7 -2 -5 -3 4 -2 33 5 28 -49 -7 -78 -6 -5 -2
-6 8 -3 10 3 23 6 28 6 5 0 9 11 9 25 0 14 5 25 10 25 13 0 11 -36 -5 -85 -11
-33 -13 -36 -15 -15 -1 23 -2 23 -10 5 -12 -28 -12 -115 0 -115 6 0 10 5 10
11 0 5 5 7 11 3 7 -4 7 -9 2 -13 -6 -3 -13 -22 -17 -42 -6 -32 -4 -37 16 -44
13 -4 31 -6 41 -5 13 1 17 -6 17 -29 0 -33 -16 -43 -22 -14 -2 12 -15 17 -50
19 -27 2 -48 -1 -48 -6 0 -4 10 -6 23 -3 21 4 22 4 2 -11 -10 -9 -20 -28 -21
-44 -1 -15 0 -19 3 -10 5 20 19 24 25 7 2 -7 10 -4 18 7 13 16 13 17 -2 12
-22 -9 -30 1 -13 18 25 25 38 17 31 -21 -4 -19 -3 -35 2 -35 14 0 33 26 25 33
-3 4 1 7 10 7 10 0 14 -6 11 -14 -3 -8 -1 -17 5 -21 7 -3 8 0 5 9 -4 11 0 16
15 16 24 0 25 -4 10 -31 -5 -11 -14 -17 -20 -14 -5 4 -9 2 -9 -3 0 -5 18 -14
40 -21 44 -13 51 -29 20 -49 -11 -7 -20 -19 -20 -27 0 -20 10 -19 26 2 17 24
27 12 15 -19 -6 -16 -5 -31 5 -48 16 -30 17 -40 5 -40 -5 0 -12 14 -16 30 -4
17 -11 30 -17 30 -7 0 -9 -25 -6 -71 5 -59 3 -69 -9 -65 -8 3 -18 6 -23 6 -4
0 -11 24 -15 52 -8 53 -8 53 -15 18 -5 -23 -8 -27 -9 -12 0 12 -7 22 -15 22
-9 0 -12 9 -10 28 2 15 1 19 -2 8 -4 -11 -12 -26 -19 -33 -12 -11 -16 -9 -29
9 -9 12 -16 27 -16 33 0 6 -11 21 -25 33 -27 23 -40 29 -30 12 6 -10 -7 -14
-32 -11 -7 1 -13 -3 -13 -10 0 -6 -7 -9 -15 -5 -8 3 -15 1 -15 -4 0 -6 -5 -10
-11 -10 -8 0 -7 5 1 15 16 19 5 32 -13 17 -9 -8 -46 -10 -105 -7 -84 4 -110
-2 -82 -20 6 -4 8 -11 4 -16 -3 -5 -10 -7 -15 -4 -5 4 -9 0 -9 -7 -1 -8 -9 -4
-19 9 -23 27 -33 29 -29 7 2 -9 -7 -20 -19 -25 -14 -5 -23 -5 -23 2 0 11 -49
2 -64 -12 -6 -5 -18 -9 -28 -9 -9 0 -26 -10 -37 -22 -17 -17 -23 -19 -36 -8
-12 10 -15 10 -15 -3 0 -10 -6 -14 -15 -11 -8 4 -15 1 -15 -6 0 -6 -4 -8 -10
-5 -5 3 -10 -1 -10 -9 0 -9 -6 -13 -14 -10 -8 3 -17 1 -21 -5 -3 -6 -15 -11
-26 -11 -11 0 -22 -7 -25 -15 -4 -8 -15 -15 -26 -15 -12 0 -22 -8 -25 -20 -5
-19 -6 -19 -18 -3 -12 17 -14 16 -20 -10 -6 -22 -10 -25 -21 -16 -11 9 -14 8
-14 -1 0 -7 -7 -10 -15 -6 -12 4 -14 0 -9 -18 6 -24 -11 -38 -46 -40 -8 0 -20
-10 -25 -21 -6 -11 -15 -20 -20 -21 -6 0 -23 -6 -38 -12 -16 -7 -35 -12 -43
-12 -8 0 -14 -8 -14 -17 0 -15 -2 -15 -9 -4 -7 11 -10 10 -14 -5 -4 -18 -5
-18 -6 -1 -1 24 -23 17 -36 -11 -5 -12 -15 -22 -22 -22 -7 0 -13 -4 -13 -10 0
-5 6 -10 14 -10 16 0 13 -68 -4 -99 -14 -27 -13 -34 5 -27 11 4 15 -1 15 -19
0 -13 4 -26 8 -29 4 -2 6 11 4 30 -3 21 0 34 7 34 6 0 11 -13 11 -30 0 -23 4
-30 20 -30 11 0 20 -5 20 -11 0 -6 -7 -9 -15 -5 -12 4 -15 -3 -15 -30 0 -22
-6 -37 -15 -40 -22 -9 -18 -41 6 -54 15 -9 24 -8 35 0 11 10 15 8 21 -6 6 -15
9 -12 13 16 3 19 2 40 -2 46 -11 15 -5 94 7 94 6 0 11 -17 13 -37 5 -56 19
-61 26 -9 7 42 18 54 42 44 3 -2 10 5 16 15 9 18 10 18 24 0 13 -17 13 -17 14
1 0 16 2 17 16 5 10 -8 12 -15 5 -17 -6 -2 -11 -8 -11 -13 0 -17 22 -9 42 16
12 15 30 25 46 25 15 0 35 7 45 14 15 12 16 14 2 20 -9 3 -15 0 -15 -9 0 -10
-10 -15 -30 -15 -16 0 -30 5 -30 10 0 6 5 10 10 10 6 0 10 6 10 14 0 15 45 17
67 3 9 -6 11 -3 7 8 -5 11 -2 14 10 9 10 -4 18 0 22 10 8 21 31 20 37 -2 3
-10 5 -5 6 12 l1 28 19 -23 c10 -13 16 -30 13 -38 -4 -11 0 -13 16 -9 12 4 20
2 16 -3 -9 -14 6 -10 23 6 12 12 13 19 3 30 -7 9 -8 15 -2 15 5 0 17 -12 27
-26 16 -24 17 -25 31 -7 14 17 14 17 29 -1 15 -20 15 -20 16 0 0 19 1 19 8 0
9 -23 16 -14 26 33 4 18 10 29 14 23 14 -23 137 59 127 85 -3 7 1 13 8 13 8 0
16 10 20 22 4 18 8 20 18 10 17 -17 41 -15 34 3 -6 17 2 19 24 5 11 -7 17 -5
21 8 6 14 8 13 17 -8 l11 -25 7 23 c7 23 28 30 39 12 3 -6 15 -10 26 -10 10 0
19 -6 19 -14 0 -8 9 -14 19 -13 11 0 19 6 18 12 -1 5 13 11 31 13 36 4 44 -14
10 -21 -20 -4 -19 -4 5 -6 16 0 30 5 33 14 7 18 25 20 21 3 -1 -7 9 -14 23
-16 14 -2 31 -11 38 -20 11 -15 14 -15 22 -2 8 12 10 12 16 -3 4 -10 13 -16
20 -13 8 3 14 0 14 -6 0 -7 5 -6 15 2 12 10 19 10 28 1 9 -9 9 -14 -2 -20 -7
-5 -12 -14 -10 -20 3 -8 12 -5 25 8 21 19 21 19 43 -10 20 -26 51 -43 36 -19
-3 5 -1 10 4 10 6 0 11 -9 11 -21 0 -11 5 -17 10 -14 6 4 10 -5 10 -19 0 -14
-4 -26 -10 -26 -5 0 -10 -12 -10 -27 -1 -25 -2 -26 -11 -9 -9 15 -13 16 -20 5
-5 -8 -9 -25 -9 -39 0 -14 -7 -34 -15 -44 -19 -25 -19 -66 -1 -66 8 0 18 4 21
10 3 6 -1 7 -9 4 -22 -8 -20 8 5 50 21 37 43 46 53 24 3 -7 3 -1 0 13 -3 16 0
32 9 41 9 8 15 21 15 29 -2 32 3 49 13 49 6 0 10 -27 9 -73 -1 -39 -1 -76 -1
-82 1 -10 22 22 40 62 6 13 14 23 19 23 5 0 14 10 21 23 9 16 10 17 5 2 -10
-29 -13 -76 -7 -93 5 -11 9 -9 20 9 13 23 14 23 8 -11 -4 -19 -8 -44 -11 -55
-3 -17 -2 -17 7 3 17 31 27 28 38 -14 8 -28 7 -41 -5 -60 -9 -13 -13 -32 -9
-44 10 -30 22 -16 18 22 l-3 33 15 -32 c19 -42 35 -42 35 -1 0 30 0 31 20 13
11 -10 20 -24 20 -31 0 -20 21 -28 31 -13 14 22 10 49 -6 49 -10 0 -12 -6 -8
-17 6 -16 5 -16 -10 -4 -9 7 -17 24 -17 37 0 12 -5 26 -11 29 -6 5 -3 13 10
22 24 16 43 10 35 -12 -3 -8 1 -22 10 -30 15 -15 16 -13 17 22 0 41 -2 44 31
-37 11 -26 12 -25 23 23 5 24 8 27 20 17 8 -7 15 -20 15 -29 0 -9 9 -27 20
-41 l20 -25 0 25 1 25 13 -24 c8 -14 11 -41 8 -67 -3 -29 -1 -44 7 -44 6 0 11
-7 11 -16 0 -8 5 -12 10 -9 6 3 10 -2 11 -12 0 -14 2 -15 6 -3 3 8 9 17 13 20
4 3 10 16 14 30 6 19 5 21 -3 10 -8 -11 -11 -12 -11 -2 0 9 -7 11 -20 7 -27
-9 -36 18 -17 46 l15 21 17 -26 c10 -14 24 -26 31 -26 17 0 17 5 4 30 -6 12
-7 21 -1 25 14 8 34 -33 28 -56 -3 -10 -1 -17 3 -14 18 11 23 -37 17 -154 -3
-47 -14 -45 -21 4 -5 31 -12 45 -23 45 -11 0 -14 -6 -8 -23 18 -58 24 -110 16
-126 -11 -18 -13 -13 -25 42 -4 15 -11 25 -16 22 -11 -7 -3 -53 12 -71 4 -6 5
-19 2 -28 -8 -22 -37 0 -30 23 3 9 -1 30 -9 46 -9 21 -14 24 -14 12 -1 -10 -5
-15 -11 -12 -5 3 -10 -1 -10 -9 0 -12 -10 -16 -40 -16 l-40 0 0 41 c0 34 -2
38 -13 27 -8 -7 -17 -27 -21 -43 l-8 -30 -10 25 c-9 25 -10 25 -24 5 -15 -19
-15 -19 -8 9 6 26 5 28 -15 21 -31 -10 -63 3 -57 23 3 9 1 24 -4 32 -8 12 -10
12 -15 -3 -5 -13 -16 -16 -42 -12 -20 2 -33 2 -29 -2 3 -3 -1 -14 -10 -24 -12
-13 -22 -15 -45 -9 -17 5 -31 5 -35 -1 -12 -20 -26 5 -19 37 3 21 2 34 -5 34
-5 0 -10 -7 -10 -15 0 -8 -7 -15 -16 -15 -10 0 -14 -6 -10 -15 3 -8 1 -15 -4
-15 -6 0 -10 5 -10 10 0 6 -4 10 -10 10 -5 0 -10 -17 -10 -37 0 -45 -9 -83
-20 -83 -4 0 -10 10 -14 22 -5 19 -8 21 -16 8 -8 -11 -10 -1 -7 38 5 57 -8 71
-18 19 -7 -38 -44 -50 -52 -16 -14 52 -33 -7 -25 -77 4 -36 5 -37 17 -13 13
22 13 22 13 -14 0 -33 -11 -50 -20 -29 -1 5 -16 15 -32 23 -34 16 -45 38 -19
35 10 0 18 5 17 12 -1 6 -2 26 -2 42 -3 41 -20 38 -28 -6 -5 -25 -10 -32 -17
-25 -8 8 -8 14 1 23 16 16 15 39 -2 32 -8 -3 -16 3 -19 15 -3 12 -13 21 -23
21 -14 0 -15 -3 -6 -12 15 -15 16 -28 1 -28 -5 0 -15 14 -20 30 -6 17 -18 30
-26 30 -8 0 -11 -5 -7 -11 5 -8 -1 -10 -19 -7 -20 4 -26 1 -25 -11 4 -48 -3
-71 -20 -71 -10 0 -23 -5 -29 -11 -8 -8 -13 -7 -18 1 -4 7 -1 16 6 21 8 5 11
9 7 10 -5 1 -12 3 -18 4 -5 1 -15 3 -21 4 -14 1 9 24 36 35 19 8 19 9 -5 16
-14 4 -30 3 -36 -2 -6 -4 -20 -5 -29 -1 -19 7 -19 7 2 -45 3 -8 -4 -12 -20
-12 -19 0 -24 -4 -20 -18 3 -12 -4 -22 -21 -31 -21 -12 -24 -19 -19 -45 6 -27
4 -29 -9 -19 -8 7 -18 10 -21 6 -4 -3 -13 0 -22 7 -10 8 -15 9 -15 1 0 -6 5
-11 10 -11 6 0 10 -5 10 -11 0 -6 -8 -8 -19 -4 -14 4 -20 0 -25 -17 -3 -13 -1
-24 4 -26 5 -2 4 -16 -2 -32 -9 -26 -11 -28 -25 -15 -11 12 -12 19 -4 29 8 9
7 13 -4 13 -8 0 -15 -5 -16 -11 -1 -6 -2 -19 -3 -28 0 -10 -5 -18 -9 -18 -4 1
-15 -6 -23 -15 -15 -14 -17 -14 -30 2 -13 17 -13 17 -14 -2 l-1 -20 -16 20
c-15 19 -15 18 -10 -18 5 -35 4 -37 -18 -31 -22 5 -24 2 -30 -40 -12 -75 -31
-55 -25 26 1 15 -2 33 -6 40 -4 7 -8 26 -8 43 -1 20 -6 30 -16 30 -20 0 -30
26 -19 47 6 10 5 19 -1 23 -6 3 -15 -6 -21 -22 -11 -26 -12 -27 -20 -8 -8 17
-9 16 -4 -5 13 -66 17 -130 7 -130 -13 0 -24 29 -15 42 3 6 1 8 -4 5 -6 -4
-13 3 -16 14 -8 29 -28 19 -44 -22 l-13 -34 6 32 c3 17 0 34 -5 38 -6 3 -11
20 -11 36 0 17 -4 28 -9 25 -5 -3 -8 5 -7 19 0 14 4 25 9 25 14 0 7 58 -8 64
-10 4 -15 -1 -15 -14 0 -11 -5 -20 -11 -20 -8 0 -8 -4 1 -14 13 -17 4 -126
-11 -126 -5 0 -8 10 -6 22 2 18 -4 22 -35 24 -29 2 -38 -1 -38 -13 0 -9 -3
-13 -7 -9 -4 4 -6 22 -5 40 2 30 0 34 -23 34 -19 0 -25 -6 -25 -24 0 -12 -4
-25 -8 -28 -4 -2 -7 12 -5 32 1 20 0 29 -3 20 -3 -10 -9 -18 -14 -18 -5 0 -7
6 -4 14 3 7 -2 20 -10 29 -9 9 -15 26 -14 38 3 20 -2 23 -32 25 -63 4 -77 13
-93 62 -10 29 -16 39 -16 25 -1 -29 -20 -29 -55 -2 -14 11 -30 18 -34 15 -5
-3 -27 4 -48 15 -37 18 -40 18 -51 2 -8 -10 -13 -12 -13 -4 0 7 -4 9 -10 6 -6
-3 -10 3 -10 15 0 23 -21 50 -39 50 -6 0 -11 8 -11 18 0 15 2 15 11 2 9 -12
10 -12 5 3 -3 10 -6 21 -6 24 0 3 -7 0 -15 -7 -17 -14 -20 -46 -5 -55 15 -9
12 -25 -5 -25 -8 0 -15 7 -15 15 0 8 -4 15 -10 15 -5 0 -7 6 -4 13 2 7 -7 23
-21 35 -22 19 -26 20 -32 6 -5 -13 -7 -13 -14 -2 -13 19 -11 28 6 28 8 0 15 5
15 11 0 6 -7 9 -14 6 -10 -4 -13 -1 -9 9 3 9 12 12 24 9 23 -7 25 8 4 25 -19
16 -49 -12 -42 -40 3 -11 1 -20 -4 -20 -5 0 -9 -12 -10 -27 0 -25 -1 -26 -9
-8 -5 11 -9 16 -9 11 -1 -6 -7 -2 -14 9 -8 10 -19 15 -25 11 -9 -5 -12 8 -12
46 0 29 -4 49 -8 43 -9 -13 -51 -13 -54 0 -2 6 8 11 22 11 112 5 140 9 140 16
0 5 13 14 29 19 30 11 46 33 35 50 -3 5 0 9 6 9 7 0 10 6 7 14 -4 9 1 17 11
19 9 3 1 6 -18 7 -19 1 -27 4 -17 7 20 5 13 23 -9 23 -8 0 -14 -8 -15 -17 0
-10 -8 -38 -19 -63 l-18 -45 -7 43 c-8 43 -21 54 -31 27 -7 -17 -34 -21 -34
-5 0 6 7 10 15 10 8 0 14 3 13 7 -3 15 22 63 32 63 5 0 10 7 10 15 0 11 -6 9
-22 -7 -13 -13 -22 -27 -20 -32 2 -5 -9 -6 -23 -4 -14 3 -25 1 -25 -3 0 -5 5
-9 10 -9 6 0 10 -7 10 -15 0 -8 -5 -15 -11 -15 -6 0 -9 -9 -6 -19 3 -14 1 -18
-9 -14 -8 3 -14 9 -14 14 0 5 -7 9 -16 9 -12 0 -15 7 -12 28 3 23 0 28 -18 30
-24 2 -39 -29 -22 -46 13 -13 2 -46 -12 -37 -6 4 -7 -1 -3 -11 4 -12 8 -14 11
-6 3 10 7 10 18 1 21 -18 17 -39 -8 -39 -34 0 -68 -11 -68 -21 0 -5 11 -9 25
-9 14 0 25 5 25 11 0 5 4 8 9 5 5 -3 7 -16 3 -28 -3 -12 -7 -17 -9 -11 -3 9
-24 10 -69 6 -58 -5 -67 -4 -89 17 -14 13 -25 30 -25 38 0 9 -3 12 -7 8 -4 -4
-8 -15 -8 -24 0 -9 -8 -18 -17 -20 -12 -2 -16 1 -12 11 3 8 0 18 -6 22 -11 7
29 45 49 45 6 0 11 14 11 30 0 37 -5 37 -35 3 -16 -20 -20 -30 -12 -35 8 -5 6
-8 -5 -8 -17 0 -22 -10 -19 -37 1 -7 -3 -13 -9 -13 -5 0 -10 7 -10 15 0 8 -4
15 -10 15 -21 0 -5 -33 20 -43 9 -4 5 -6 -9 -4 -32 3 -49 49 -31 82 7 13 10
35 6 49 -6 23 -9 24 -31 14 -25 -11 -32 -24 -16 -30 14 -5 -7 -48 -23 -48 -9
0 -12 -7 -9 -18 3 -12 -2 -18 -16 -19 -12 -1 -21 2 -21 8 0 5 5 9 11 9 5 0 7
5 3 11 -5 8 -10 6 -16 -5 -5 -9 -18 -16 -28 -16 -11 0 -20 -5 -20 -10 0 -6 11
-8 25 -4 34 8 31 -8 -5 -29 -16 -10 -30 -24 -30 -30 0 -7 -11 -25 -24 -40
l-24 -28 -53 15 -52 16 -27 -30 c-15 -17 -30 -30 -34 -30 -5 0 -22 -11 -38
-25 -21 -18 -34 -23 -42 -16 -16 13 -48 -23 -50 -54 0 -13 -5 -21 -9 -18 -5 3
-6 11 -3 19 3 7 0 16 -6 20 -8 5 -9 -2 -5 -24 4 -20 1 -34 -7 -42 -11 -8 -15
-8 -19 2 -3 9 -10 6 -24 -9 -11 -13 -26 -23 -33 -23 -7 0 -29 -12 -49 -27 -20
-16 -38 -28 -41 -28 -3 0 -11 -4 -18 -8 -7 -5 -12 -4 -12 2 0 13 -32 2 -47
-16 -6 -8 -16 -12 -21 -9 -6 3 -17 -5 -26 -19 -15 -23 -86 -68 -72 -46 4 7 1
8 -8 5 -9 -3 -16 -15 -16 -26 0 -14 -5 -18 -16 -14 -10 4 -23 -2 -34 -14 -9
-11 -19 -18 -21 -15 -11 10 -60 -45 -78 -88 -21 -48 -55 -77 -64 -54 -3 7 -6
4 -6 -6 -1 -10 -5 -15 -11 -12 -6 3 -10 -5 -10 -19 0 -13 -3 -26 -7 -28 -13
-5 -43 -68 -33 -68 5 0 7 -7 4 -15 -5 -13 137 -15 1249 -15 995 0 1256 3 1260
13 4 9 6 9 6 0 1 -9 19 -13 56 -13 37 0 55 4 55 13 0 8 4 7 10 -3 9 -13 11
-13 21 0 8 11 12 12 16 3 7 -18 113 -18 113 0 0 9 2 9 8 1 4 -7 34 -12 68 -13
l62 -1 7 43 c4 23 9 36 12 30 3 -7 11 -13 19 -13 8 0 14 -4 14 -10 0 -5 -3
-10 -8 -10 -4 0 -13 -9 -20 -20 -11 -19 -10 -20 23 -20 23 0 35 5 35 14 0 8 7
16 15 20 12 4 13 2 5 -13 -9 -18 -5 -19 49 -19 l58 0 9 36 c5 19 15 37 21 40
9 2 8 -4 -2 -25 -25 -48 -21 -53 51 -53 56 0 69 3 85 23 10 12 18 16 19 10 0
-7 -4 -13 -10 -13 -5 0 -10 -4 -10 -10 0 -5 11 -9 25 -8 19 2 25 8 25 25 0 13
5 23 10 23 6 0 10 -5 10 -11 0 -5 4 -8 9 -4 5 3 12 -4 16 -15 6 -19 14 -20
320 -20 269 0 314 2 319 15 3 8 11 15 18 14 10 0 10 -2 1 -6 -47 -19 45 -22
552 -23 437 0 570 3 586 12 17 10 23 10 26 1 4 -10 196 -13 914 -13 l909 0 0
1309 c0 1026 -3 1311 -13 1314 -9 4 -9 6 1 6 9 1 12 32 12 120 0 86 -3 121
-12 124 -10 4 -10 6 0 6 7 1 12 14 12 31 0 30 -14 41 -23 18 -2 -7 -8 -10 -12
-6 -4 4 2 23 14 43 19 32 21 51 21 176 l0 140 -22 -5 -23 -6 22 11 22 12 1
611 0 611 -50 18 c-41 15 -50 22 -50 41 0 30 -23 49 -50 41 -12 -4 -27 -1 -35
5 -8 6 -18 9 -24 6 -5 -3 -12 1 -15 10 -5 14 -15 15 -53 10 -25 -3 -51 -2 -57
2 -6 5 -51 26 -100 47 -85 36 -90 37 -103 19 -7 -10 -13 -21 -13 -26 0 -4 -7
-8 -15 -8 -8 0 -15 6 -15 13 0 8 -10 18 -22 24 -80 37 -124 58 -128 63 -12 13
-80 29 -130 31 -45 3 -55 0 -58 -14 -5 -24 -22 -21 -22 3 0 11 -4 20 -9 20 -4
0 -23 16 -42 35 -19 19 -42 35 -51 35 -9 0 -29 7 -45 14 -51 27 -131 46 -189
46 -41 0 -63 5 -77 18 -14 12 -35 17 -76 16 -39 -1 -47 1 -26 5 l30 7 -25 8
c-14 5 -80 12 -148 15 -75 4 -125 10 -130 17 -4 7 -16 13 -27 15 -30 4 -95
-12 -95 -23 0 -6 -5 -6 -14 1 -8 6 -27 13 -44 14 -16 1 -28 5 -26 9 6 10 -8
14 -38 10z m-408 -32 c0 -5 -5 -10 -11 -10 -5 0 -7 5 -4 10 3 6 8 10 11 10 2
0 4 -4 4 -10z m40 -4 c0 -3 -4 -8 -10 -11 -5 -3 -10 -1 -10 4 0 6 5 11 10 11
6 0 10 -2 10 -4z m110 -10 c0 -3 -4 -8 -10 -11 -5 -3 -10 -1 -10 4 0 6 5 11
10 11 6 0 10 -2 10 -4z m-140 -26 c0 -5 -4 -10 -10 -10 -5 0 -10 5 -10 10 0 6
5 10 10 10 6 0 10 -4 10 -10z m1525 -200 c3 -5 1 -10 -4 -10 -6 0 -11 5 -11
10 0 6 2 10 4 10 3 0 8 -4 11 -10z m-3315 -50 c0 -5 -4 -10 -9 -10 -6 0 -13 5
-16 10 -3 6 1 10 9 10 9 0 16 -4 16 -10z m-45 -40 c3 -5 -3 -10 -13 -10 -12 0
-22 -9 -26 -22 -4 -19 -7 -20 -18 -9 -10 11 -10 14 0 18 6 3 12 11 12 19 0 16
36 19 45 4z m3729 -29 c4 -5 -3 -7 -14 -4 -23 6 -26 13 -6 13 8 0 17 -4 20 -9z
m-757 -77 c-3 -3 -12 -4 -19 -1 -8 3 -5 6 6 6 11 1 17 -2 13 -5z m-5940 -30
c-3 -3 -12 -4 -19 -1 -8 3 -5 6 6 6 11 1 17 -2 13 -5z m-67 -18 c0 -3 -4 -8
-10 -11 -5 -3 -10 -1 -10 4 0 6 5 11 10 11 6 0 10 -2 10 -4z m55 -6 c-3 -5
-12 -10 -20 -10 -8 0 -17 5 -20 10 -4 6 5 10 20 10 15 0 24 -4 20 -10z m6698
3 c-7 -2 -19 -2 -25 0 -7 3 -2 5 12 5 14 0 19 -2 13 -5z m-4013 -23 c0 -5 -2
-10 -4 -10 -3 0 -8 5 -11 10 -3 6 -1 10 4 10 6 0 11 -4 11 -10z m-2702 -11
c-2 -6 -7 -10 -11 -10 -4 1 -14 1 -22 1 -8 0 -15 5 -15 10 0 6 12 10 26 10 14
0 24 -5 22 -11z m4092 -19 c0 -5 -7 -10 -15 -10 -8 0 -15 5 -15 10 0 6 7 10
15 10 8 0 15 -4 15 -10z m-4485 -15 c-51 -19 -64 -19 -39 0 10 8 33 14 49 14
29 0 28 0 -10 -14z m5360 5 c-3 -5 -10 -10 -16 -10 -5 0 -9 5 -9 10 0 6 7 10
16 10 8 0 12 -4 9 -10z m-4685 -20 c-20 -13 -63 -13 -55 0 3 6 21 10 38 10 24
0 28 -3 17 -10z m2100 -6 c0 -2 -12 -4 -27 -4 -21 0 -24 3 -14 9 13 8 41 5 41
-5z m-2240 -14 c0 -5 -4 -10 -10 -10 -5 0 -10 5 -10 10 0 6 5 10 10 10 6 0 10
-4 10 -10z m157 -6 c-3 -3 -12 -4 -19 -1 -8 3 -5 6 6 6 11 1 17 -2 13 -5z
m350 -10 c-3 -3 -12 -4 -19 -1 -8 3 -5 6 6 6 11 1 17 -2 13 -5z m-823 -13 c4
-5 2 -20 -3 -33 -9 -21 -10 -21 -10 -2 -1 11 -6 25 -13 32 -9 9 -8 12 4 12 9
0 19 -4 22 -9z m304 2 c-10 -2 -26 -2 -35 0 -10 3 -2 5 17 5 19 0 27 -2 18 -5z
m879 1 c-3 -3 -12 -4 -19 -1 -8 3 -5 6 6 6 11 1 17 -2 13 -5z m4121 -1 c-16
-2 -40 -2 -55 0 -16 2 -3 4 27 4 30 0 43 -2 28 -4z m-5568 -12 c0 -9 -24 -21
-42 -21 -6 0 -6 6 2 15 14 16 40 20 40 6z m5647 3 c-3 -3 -12 -4 -19 -1 -8 3
-5 6 6 6 11 1 17 -2 13 -5z m1120 0 c-3 -3 -12 -4 -19 -1 -8 3 -5 6 6 6 11 1
17 -2 13 -5z m-5419 -31 c-10 -2 -28 -2 -40 0 -13 2 -5 4 17 4 22 1 32 -1 23
-4z m-853 -13 c-3 -5 -13 -10 -21 -10 -8 0 -14 5 -14 10 0 6 9 10 21 10 11 0
17 -4 14 -10z m-80 -10 c-27 -12 -43 -12 -25 0 8 5 22 9 30 9 10 0 8 -3 -5 -9z
m995 -4 c0 -2 -9 -6 -20 -9 -11 -3 -18 -1 -14 4 5 9 34 13 34 5z m51 -39 c-10
-9 -11 -8 -5 6 3 10 9 15 12 12 3 -3 0 -11 -7 -18z m-1020 -2 c34 -14 34 -14
7 -15 -16 0 -28 5 -28 11 0 5 -4 7 -10 4 -17 -11 -11 -24 15 -31 32 -8 33 -24
1 -24 -13 0 -38 -3 -55 -6 -26 -6 -31 -3 -31 13 0 28 20 45 37 32 10 -9 13 -7
13 10 0 25 7 26 51 6z m489 -1 c0 -2 -9 -4 -20 -4 -11 0 -20 4 -20 9 0 5 9 7
20 4 11 -3 20 -7 20 -9z m183 -31 c-7 -2 -19 -2 -25 0 -7 3 -2 5 12 5 14 0 19
-2 13 -5z m5841 -9 c4 -10 1 -14 -6 -12 -15 5 -23 28 -10 28 5 0 13 -7 16 -16z
m-5837 -30 c-3 -3 -12 -4 -19 -1 -8 3 -5 6 6 6 11 1 17 -2 13 -5z m3076 -1
c-7 -2 -19 -2 -25 0 -7 3 -2 5 12 5 14 0 19 -2 13 -5z m-3768 -43 c-3 -5 -14
-10 -23 -9 -14 0 -13 2 3 9 27 11 27 11 20 0z m495 -26 c0 -2 -7 -4 -15 -4 -8
0 -15 4 -15 10 0 5 7 7 15 4 8 -4 15 -8 15 -10z m2897 10 c-3 -3 -12 -4 -19
-1 -8 3 -5 6 6 6 11 1 17 -2 13 -5z m28 -4 c3 -5 1 -10 -4 -10 -6 0 -11 5 -11
10 0 6 2 10 4 10 3 0 8 -4 11 -10z m-3440 -10 c3 -5 1 -10 -4 -10 -6 0 -11 5
-11 10 0 6 2 10 4 10 3 0 8 -4 11 -10z m-215 -4 c0 -3 -4 -8 -10 -11 -5 -3
-10 -1 -10 4 0 6 5 11 10 11 6 0 10 -2 10 -4z m810 -22 c0 -2 -7 -4 -15 -4 -8
0 -15 4 -15 10 0 5 7 7 15 4 8 -4 15 -8 15 -10z m-903 0 c-3 -3 -12 -4 -19 -1
-8 3 -5 6 6 6 11 1 17 -2 13 -5z m846 -1 c-7 -2 -21 -2 -30 0 -10 3 -4 5 12 5
17 0 24 -2 18 -5z m2900 0 c-7 -2 -21 -2 -30 0 -10 3 -4 5 12 5 17 0 24 -2 18
-5z m-60 -10 c-7 -2 -21 -2 -30 0 -10 3 -4 5 12 5 17 0 24 -2 18 -5z m-2726
-9 c-3 -3 -12 -4 -19 -1 -8 3 -5 6 6 6 11 1 17 -2 13 -5z m126 -1 c-24 -2 -43
-8 -43 -14 0 -5 -7 -9 -15 -9 -21 0 -19 18 3 23 9 3 35 4 57 4 l40 0 -42 -4z
m-237 -31 c-21 -2 -42 0 -47 5 -4 4 13 6 39 3 l47 -5 -39 -3z m818 -13 c-46
-36 -74 -52 -80 -46 -3 3 12 15 33 28 21 13 44 29 51 36 7 7 18 13 24 13 6 0
-7 -14 -28 -31z m3483 15 c-3 -3 -12 -4 -19 -1 -8 3 -5 6 6 6 11 1 17 -2 13
-5z m-140 -10 c-3 -3 -12 -4 -19 -1 -8 3 -5 6 6 6 11 1 17 -2 13 -5z m-1440
-30 c-3 -3 -12 -4 -19 -1 -8 3 -5 6 6 6 11 1 17 -2 13 -5z m1959 -76 c-9 -5
-24 -7 -34 -5 -12 3 -10 5 6 6 13 0 20 5 17 11 -4 6 1 7 11 3 15 -5 15 -7 0
-15z m111 -4 c-3 -3 -12 -4 -19 -1 -8 3 -5 6 6 6 11 1 17 -2 13 -5z m-480 -20
c-3 -3 -12 -4 -19 -1 -8 3 -5 6 6 6 11 1 17 -2 13 -5z m546 -1 c-7 -2 -21 -2
-30 0 -10 3 -4 5 12 5 17 0 24 -2 18 -5z m-3933 -13 c-20 -13 -43 -13 -35 0 3
6 16 10 28 10 18 0 19 -2 7 -10z m3940 -9 c0 -5 8 -7 19 -4 10 3 22 -1 26 -7
6 -10 -11 -11 -71 -7 -44 3 -80 6 -81 7 -2 0 -3 4 -3 9 0 4 25 9 55 10 30 0
55 -3 55 -8z m-943 -17 c-3 -3 -12 -4 -19 -1 -8 3 -5 6 6 6 11 1 17 -2 13 -5z
m733 -14 c0 -5 -4 -10 -10 -10 -5 0 -10 5 -10 10 0 6 5 10 10 10 6 0 10 -4 10
-10z m433 3 c-7 -2 -21 -2 -30 0 -10 3 -4 5 12 5 17 0 24 -2 18 -5z m-2986
-29 c-3 -3 -12 -4 -19 -1 -8 3 -5 6 6 6 11 1 17 -2 13 -5z m311 -65 c-2 -6 -7
-10 -11 -10 -4 1 -17 1 -29 2 -22 0 -22 1 -3 9 28 12 47 12 43 -1z m191 -23
c-12 -10 -60 -16 -54 -6 3 5 18 10 32 10 15 0 24 -2 22 -4z m181 -6 c11 -7 6
-10 -20 -10 -26 0 -31 3 -20 10 8 5 17 10 20 10 3 0 12 -5 20 -10z m-3700
-115 c7 -8 9 -15 6 -15 -4 0 -14 7 -22 15 -9 8 -11 15 -6 15 5 0 15 -7 22 -15z
m191 -8 c-1 -12 -15 -9 -19 4 -3 6 1 10 8 8 6 -3 11 -8 11 -12z m209 3 c0 -5
-6 -10 -14 -10 -8 0 -18 5 -21 10 -3 6 3 10 14 10 12 0 21 -4 21 -10z m-417
-97 c-7 -2 -19 -2 -25 0 -7 3 -2 5 12 5 14 0 19 -2 13 -5z m7494 -108 c0 -8
-5 -15 -11 -15 -29 -1 -81 -36 -81 -55 0 -13 -8 -21 -22 -23 -13 -2 -23 -10
-23 -18 0 -17 -2 -17 -46 1 -26 10 -34 19 -30 30 4 11 -3 17 -24 22 -16 3 -28
9 -25 13 4 7 -18 22 -37 24 -3 1 -10 4 -14 9 -13 13 16 7 48 -9 35 -18 128
-14 153 6 10 8 14 8 17 -1 3 -9 10 -9 28 1 14 7 32 17 40 21 22 12 27 11 27
-6z m-364 -2 c-20 -3 -33 -10 -33 -19 0 -9 -10 -14 -29 -14 -16 0 -37 -3 -47
-7 -12 -4 -15 -3 -10 5 4 7 17 12 29 13 12 0 16 3 10 6 -32 12 -7 23 50 21 34
0 47 -3 30 -5z m-713 -32 c13 -13 10 -14 -23 -8 -24 4 -37 2 -37 -6 0 -8 -3
-8 -11 0 -6 6 -18 10 -25 7 -49 -15 -49 -15 -34 -24 11 -7 6 -10 -17 -10 -18
0 -33 -4 -33 -10 0 -5 -7 -10 -15 -10 -8 0 -15 4 -15 9 0 5 -8 11 -17 13 -31
7 22 29 83 35 30 3 54 9 54 13 0 12 75 5 90 -9z m1135 9 c3 -5 1 -10 -4 -10
-6 0 -11 5 -11 10 0 6 2 10 4 10 3 0 8 -4 11 -10z m-885 -29 c0 -4 11 -6 25
-3 18 3 25 0 25 -10 0 -12 -14 -15 -65 -14 -36 1 -65 4 -65 9 0 4 14 7 30 7
17 0 30 5 30 10 0 6 5 10 10 10 6 0 10 -4 10 -9z m90 -11 c0 -5 7 -10 16 -10
8 0 12 4 9 10 -4 6 2 6 17 0 13 -6 31 -13 41 -16 9 -4 17 -10 17 -14 0 -5 28
-17 63 -29 34 -11 74 -26 88 -33 23 -12 25 -16 14 -31 -10 -13 -14 -14 -18 -4
-2 7 -29 19 -58 26 -30 8 -71 22 -92 33 -29 15 -42 16 -58 7 -15 -8 -24 -8
-32 0 -8 8 -4 11 16 11 18 0 27 5 27 16 0 10 -5 14 -15 10 -19 -7 -66 14 -59
25 7 12 24 11 24 -1z m-600 -16 c20 -5 27 -10 19 -14 -7 -5 -20 -3 -30 3 -14
9 -21 9 -31 -1 -6 -6 -21 -12 -32 -12 -19 1 -19 2 4 15 30 17 29 17 70 9z
m337 -21 c-4 -3 -27 -9 -52 -13 -34 -5 -45 -4 -45 7 0 9 15 13 52 13 28 0 48
-3 45 -7z m-300 -28 c14 -15 5 -29 -11 -16 -11 10 -17 11 -39 11 -8 0 -14 7
-14 15 0 17 44 10 64 -10z m853 3 c0 -16 -3 -19 -11 -11 -6 6 -8 16 -5 22 11
17 16 13 16 -11z m210 12 c0 -5 -4 -10 -10 -10 -5 0 -10 5 -10 10 0 6 5 10 10
10 6 0 10 -4 10 -10z m180 0 c0 -5 -4 -10 -9 -10 -6 0 -13 5 -16 10 -3 6 1 10
9 10 9 0 16 -4 16 -10z m-1347 -7 c-7 -2 -19 -2 -25 0 -7 3 -2 5 12 5 14 0 19
-2 13 -5z m477 -13 c0 -5 -15 -9 -32 -9 l-33 1 30 8 c17 4 31 8 33 9 1 0 2 -3
2 -9z m-977 -7 c-7 -2 -19 -2 -25 0 -7 3 -2 5 12 5 14 0 19 -2 13 -5z m327 -2
c0 -6 -4 -13 -10 -16 -5 -3 -10 1 -10 9 0 9 5 16 10 16 6 0 10 -4 10 -9z m560
-1 c-8 -5 -22 -9 -30 -9 -10 0 -8 3 5 9 27 12 43 12 25 0z m207 4 c-3 -3 -12
-4 -19 -1 -8 3 -5 6 6 6 11 1 17 -2 13 -5z m511 -13 c3 -10 -3 -12 -26 -6 -26
5 -30 4 -26 -12 4 -14 -4 -21 -37 -31 -60 -19 -70 -1 -17 30 70 41 97 46 106
19z m-1541 3 c-3 -3 -12 -4 -19 -1 -8 3 -5 6 6 6 11 1 17 -2 13 -5z m496 -16
c-4 -13 -7 -36 -7 -51 1 -19 -2 -24 -7 -15 -7 10 -9 9 -9 -4 0 -10 -4 -18 -10
-18 -5 0 -10 -9 -10 -20 0 -29 -73 -97 -117 -109 -21 -6 -60 -11 -86 -11 -30
0 -46 -4 -42 -10 3 -5 17 -10 31 -10 13 0 24 -4 24 -9 0 -5 16 -12 36 -15 29
-6 33 -10 24 -22 -7 -8 -25 -14 -40 -14 -23 0 -27 -4 -27 -25 0 -21 3 -24 20
-19 13 4 17 2 13 -5 -4 -6 -19 -11 -34 -11 -18 0 -23 -3 -14 -8 9 -6 6 -12
-12 -21 -13 -8 -29 -11 -34 -7 -6 3 -18 -1 -27 -10 -9 -9 -17 -15 -19 -13 -7
8 14 49 24 49 6 0 23 11 37 25 30 27 32 25 -58 45 -49 11 -83 10 -149 -3 -23
-5 -64 -29 -76 -45 -8 -12 -13 -10 -28 13 -10 15 -16 29 -13 31 2 2 31 9 63
14 l59 9 -70 -4 c-38 -2 -63 -1 -55 2 8 3 17 9 20 13 3 3 30 14 60 23 55 16
55 17 15 15 -65 -2 -142 4 -115 9 14 2 44 11 67 20 23 8 56 13 72 11 17 -2 32
0 34 5 1 5 65 10 142 13 107 3 143 7 151 18 5 8 22 13 37 12 14 -2 24 1 21 5
-3 5 1 11 8 14 8 3 15 15 15 28 1 12 7 23 13 25 5 2 8 8 4 13 -3 5 0 9 5 9 6
0 11 6 11 14 0 8 7 16 15 20 8 3 15 15 15 26 0 11 7 20 16 20 12 0 13 -5 7
-22z m1090 15 c-7 -2 -19 -2 -25 0 -7 3 -2 5 12 5 14 0 19 -2 13 -5z m-1756
-9 c-3 -3 -12 -4 -19 -1 -8 3 -5 6 6 6 11 1 17 -2 13 -5z m870 0 c-3 -3 -12
-4 -19 -1 -8 3 -5 6 6 6 11 1 17 -2 13 -5z m218 -4 c3 -5 1 -10 -4 -10 -6 0
-11 5 -11 10 0 6 2 10 4 10 3 0 8 -4 11 -10z m985 6 c0 -2 -9 -6 -20 -9 -11
-3 -18 -1 -14 4 5 9 34 13 34 5z m-2320 -16 c0 -5 -4 -10 -10 -10 -5 0 -10 5
-10 10 0 6 5 10 10 10 6 0 10 -4 10 -10z m196 -10 c9 0 12 -4 9 -10 -3 -5 -14
-10 -24 -10 -10 0 -32 -7 -47 -15 -50 -26 -73 -15 -35 17 22 18 50 27 69 22 8
-2 20 -4 28 -4z m64 -10 c0 -5 -7 -10 -15 -10 -8 0 -15 5 -15 10 0 6 7 10 15
10 8 0 15 -4 15 -10z m965 0 c-3 -5 -10 -10 -16 -10 -5 0 -9 5 -9 10 0 6 7 10
16 10 8 0 12 -4 9 -10z m982 4 c-3 -3 -12 -4 -19 -1 -8 3 -5 6 6 6 11 1 17 -2
13 -5z m-2226 -13 c-12 -8 -51 -4 -51 5 0 2 15 4 33 4 22 0 28 -3 18 -9z
m2157 0 c21 -13 -24 -36 -100 -51 -37 -7 -65 -16 -62 -21 3 -5 11 -9 19 -9 7
0 15 -6 18 -12 3 -10 7 -10 18 -1 10 8 20 9 29 3 13 -8 13 -10 1 -10 -11 0 -9
-4 5 -15 19 -14 19 -14 -1 -15 -12 0 -25 4 -30 9 -6 5 -44 12 -85 15 -97 7
-332 31 -345 35 -20 7 -35 1 -35 -14 0 -8 -4 -15 -10 -15 -5 0 -10 9 -10 20 0
23 -3 24 -31 8 -15 -9 -23 -10 -26 -2 -2 6 -18 8 -36 6 -28 -4 -30 -3 -19 11
14 17 46 21 155 18 6 0 37 2 67 4 30 3 102 -2 159 -11 82 -12 111 -12 133 -3
15 6 25 15 22 20 -3 5 6 9 20 9 14 0 26 4 26 9 0 9 29 15 85 19 11 1 26 -2 33
-7z m-1721 -7 c-3 -3 -12 -4 -19 -1 -8 3 -5 6 6 6 11 1 17 -2 13 -5z m1213 -4
c0 -5 -7 -10 -15 -10 -8 0 -15 5 -15 10 0 6 7 10 15 10 8 0 15 -4 15 -10z
m-859 -23 c-13 -13 -26 -3 -16 12 3 6 11 8 17 5 6 -4 6 -10 -1 -17z m1032 6
c-7 -2 -19 -2 -25 0 -7 3 -2 5 12 5 14 0 19 -2 13 -5z m-1813 -23 c0 -5 -9
-10 -19 -10 -11 0 -23 5 -26 10 -4 6 5 10 19 10 14 0 26 -4 26 -10z m80 0 c0
-5 -2 -10 -4 -10 -3 0 -8 5 -11 10 -3 6 -1 10 4 10 6 0 11 -4 11 -10z m2245 0
c3 -5 -1 -10 -9 -10 -8 0 -18 5 -21 10 -3 6 1 10 9 10 8 0 18 -4 21 -10z
m-2031 -42 c-14 -11 -28 -18 -31 -14 -4 3 -1 6 5 6 7 0 12 9 12 19 0 14 5 18
20 14 19 -5 18 -6 -6 -25z m-324 12 c0 -5 -5 -10 -11 -10 -5 0 -7 5 -4 10 3 6
8 10 11 10 2 0 4 -4 4 -10z m428 -15 c-3 -32 -23 -32 -24 0 -1 15 3 25 12 25
9 0 13 -9 12 -25z m988 0 c18 -15 17 -16 -16 -9 -44 8 -63 24 -29 24 14 0 34
-7 45 -15z m364 -26 c0 -5 -4 -9 -10 -9 -5 0 -10 7 -10 16 0 8 5 12 10 9 6 -3
10 -10 10 -16z m80 0 c0 -5 -7 -9 -15 -9 -15 0 -20 12 -9 23 8 8 24 -1 24 -14z
m-1883 4 c-20 -2 -52 -2 -70 0 -17 2 0 4 38 4 39 0 53 -2 32 -4z m113 -3 c0
-5 -10 -10 -22 -9 -22 0 -22 1 -3 9 11 5 21 9 23 9 1 1 2 -3 2 -9z m377 4 c-3
-3 -12 -4 -19 -1 -8 3 -5 6 6 6 11 1 17 -2 13 -5z m1196 -61 c-3 -7 0 -13 6
-13 6 0 11 -7 11 -15 0 -22 -8 -19 -35 12 -13 16 -20 32 -17 38 4 5 7 13 8 18
1 4 2 10 3 15 1 4 8 -4 15 -17 8 -14 12 -31 9 -38z m242 47 c3 -5 2 -10 -4
-10 -5 0 -13 5 -16 10 -3 6 -2 10 4 10 5 0 13 -4 16 -10z m-1475 -10 c0 -5
-12 -10 -27 -10 -22 0 -25 2 -13 10 20 13 40 13 40 0z m910 0 c-20 -13 -33
-13 -25 0 3 6 14 10 23 10 15 0 15 -2 2 -10z m57 4 c-3 -3 -12 -4 -19 -1 -8 3
-5 6 6 6 11 1 17 -2 13 -5z m960 0 c-3 -3 -12 -4 -19 -1 -8 3 -5 6 6 6 11 1
17 -2 13 -5z m-2249 -21 c-10 -2 -28 -2 -40 0 -13 2 -5 4 17 4 22 1 32 -1 23
-4z m997 -3 c-3 -5 -18 -11 -33 -11 -24 -1 -23 -3 8 -9 25 -5 28 -8 11 -9 -13
0 -49 -7 -80 -15 -83 -21 -161 -29 -161 -16 0 5 11 10 24 10 14 0 28 5 31 10
3 6 16 10 28 10 18 0 19 2 7 10 -11 7 0 10 37 10 28 0 55 5 58 10 3 6 22 10
41 10 21 0 33 -4 29 -10z m-832 -7 c-7 -2 -19 -2 -25 0 -7 3 -2 5 12 5 14 0
19 -2 13 -5z m57 -3 c0 -5 -7 -7 -15 -4 -8 4 -15 8 -15 10 0 2 7 4 15 4 8 0
15 -4 15 -10z m560 0 c0 -5 -5 -10 -11 -10 -5 0 -7 5 -4 10 3 6 8 10 11 10 2
0 4 -4 4 -10z m705 1 c3 -5 1 -13 -5 -16 -15 -9 -43 3 -35 15 8 13 32 13 40 1z
m125 -1 c0 -5 -4 -10 -10 -10 -5 0 -10 5 -10 10 0 6 5 10 10 10 6 0 10 -4 10
-10z m40 6 c0 -3 -4 -8 -10 -11 -5 -3 -10 -1 -10 4 0 6 5 11 10 11 6 0 10 -2
10 -4z m-1723 -12 c-3 -3 -12 -4 -19 -1 -8 3 -5 6 6 6 11 1 17 -2 13 -5z
m1470 0 c-3 -3 -12 -4 -19 -1 -8 3 -5 6 6 6 11 1 17 -2 13 -5z m-140 -10 c-3
-3 -12 -4 -19 -1 -8 3 -5 6 6 6 11 1 17 -2 13 -5z m-180 -10 c-3 -3 -12 -4
-19 -1 -8 3 -5 6 6 6 11 1 17 -2 13 -5z m-1087 -14 c0 -13 -11 -13 -30 0 -12
8 -11 10 8 10 12 0 22 -4 22 -10z m1480 0 c0 -5 -12 -10 -26 -10 -14 0 -23 4
-19 10 3 6 15 10 26 10 10 0 19 -4 19 -10z m-750 -10 c0 -5 -4 -10 -10 -10 -5
0 -10 5 -10 10 0 6 5 10 10 10 6 0 10 -4 10 -10z m72 -21 c-13 -5 -20 -13 -17
-19 3 -5 -3 -10 -14 -10 -24 0 -18 26 7 33 31 8 47 6 24 -4z m654 -16 c-10
-10 -19 5 -10 18 6 11 8 11 12 0 2 -7 1 -15 -2 -18z m178 1 c4 -10 -2 -14 -22
-12 -18 1 -28 8 -28 18 0 20 42 15 50 -6z m116 6 c16 -16 17 -20 5 -20 -8 0
-15 -7 -15 -16 0 -9 5 -12 13 -8 9 5 9 4 0 -6 -13 -14 -1 -48 21 -62 8 -5 7
-11 -2 -20 -9 -9 -15 -9 -24 0 -7 7 -20 12 -30 12 -10 0 -18 4 -18 8 0 4 -13
15 -29 25 -23 13 -53 17 -147 17 -201 -1 -369 6 -384 15 -16 10 -128 24 -217
27 -35 2 -63 7 -63 11 0 5 -12 6 -27 3 -18 -4 -23 -3 -15 2 13 9 45 8 182 -3
215 -18 410 -25 410 -14 0 5 12 9 28 8 23 0 24 -2 7 -8 -18 -7 -17 -8 5 -14
14 -3 55 -7 92 -8 51 -2 72 2 86 14 22 20 38 22 45 5 3 -7 6 -3 6 10 1 19 18
34 49 41 1 1 11 -8 22 -19z m25 10 c-3 -5 -12 -10 -18 -10 -7 0 -6 4 3 10 19
12 23 12 15 0z m-1749 -9 c-3 -5 -15 -7 -26 -4 -28 7 -25 13 6 13 14 0 23 -4
20 -9z m104 -8 c0 -10 -6 -13 -16 -9 -9 3 -27 6 -40 6 -41 0 -26 15 16 17 30
1 40 -3 40 -14z m-1582 1 c12 -4 22 -12 22 -20 0 -14 41 -27 134 -40 35 -5 61
-15 64 -22 3 -11 0 -12 -14 -5 -28 14 -94 15 -110 2 -11 -9 -14 -9 -14 0 0 8
-5 9 -17 2 -11 -6 -24 -6 -36 1 -11 5 -28 7 -39 5 -14 -4 -22 0 -25 13 -5 17
-6 17 -23 0 -11 -11 -27 -16 -43 -13 -23 5 -24 8 -15 33 6 17 15 27 22 24 8
-3 16 2 19 10 7 17 35 20 75 10z m1657 -4 c3 -6 -4 -10 -17 -10 -18 0 -20 2
-8 10 19 12 18 12 25 0z m1603 -2 c-2 -7 5 -12 14 -12 23 2 14 -12 -11 -19
-13 -3 -21 1 -24 14 -5 18 0 29 15 29 4 0 7 -6 6 -12z m-5893 -12 c33 1 66 -3
73 -8 6 -6 26 -8 42 -4 17 3 30 1 30 -4 0 -6 -6 -10 -14 -10 -8 0 -18 -4 -21
-10 -4 -6 9 -9 32 -7 29 1 37 -1 35 -13 -1 -10 2 -9 13 4 8 11 15 28 15 38 0
22 23 24 44 3 8 -8 28 -15 45 -15 16 0 33 -5 37 -11 4 -7 28 -9 70 -5 34 3 65
2 68 -3 3 -5 24 -7 46 -4 31 4 40 2 40 -10 0 -18 -37 -24 -126 -22 -35 1 -64
-2 -64 -6 0 -4 -14 -3 -30 3 -17 5 -39 8 -50 5 -11 -3 -23 -1 -26 4 -3 5 -11
6 -17 2 -16 -10 -70 -4 -78 8 -6 10 -67 7 -85 -4 -6 -3 -55 -9 -109 -13 -72
-5 -96 -4 -91 5 5 7 -4 11 -26 11 -25 0 -29 -3 -18 -10 11 -7 7 -10 -17 -10
-17 0 -39 -3 -49 -7 -10 -4 -15 -2 -11 3 3 5 -3 10 -13 10 -10 0 -16 -4 -13
-9 3 -4 -12 -5 -32 -1 -27 5 -36 4 -31 -5 10 -15 -5 -14 -26 3 -23 17 -23 28
0 43 15 9 21 8 29 -6 8 -13 20 -17 43 -13 24 3 28 7 19 14 -10 6 -4 7 17 3 34
-7 83 14 76 33 -5 16 5 15 38 -5 23 -13 32 -14 44 -4 8 7 12 20 9 29 -5 14 -4
15 8 6 8 -6 41 -10 74 -8z m2139 -5 c3 -5 -1 -14 -8 -20 -12 -10 -13 -8 -9 8
6 23 9 25 17 12z m4049 -8 c-7 -2 -19 -2 -25 0 -7 3 -2 5 12 5 14 0 19 -2 13
-5z m-3790 -10 c-7 -2 -19 -2 -25 0 -7 3 -2 5 12 5 14 0 19 -2 13 -5z m1917
-3 c0 -13 -78 -33 -99 -25 -12 6 -8 10 19 20 42 16 80 19 80 5z m260 -11 c0
-5 -7 -9 -15 -9 -9 0 -12 6 -9 15 6 15 24 11 24 -6z m233 14 c-7 -2 -13 -12
-13 -21 0 -15 -2 -15 -10 -2 -15 23 -12 30 13 29 12 0 16 -3 10 -6z m-2548
-33 c91 2 100 1 89 -10 -6 -6 -35 -10 -65 -10 -29 0 -61 0 -69 0 -8 0 -26 -1
-40 -3 -35 -5 -50 6 -20 14 25 7 25 7 2 8 -13 1 -21 5 -17 11 4 6 16 6 33 -1
14 -6 54 -10 87 -9z m3983 -2 c11 -14 10 -16 -7 -11 -12 3 -21 9 -21 12 0 8
12 23 14 19 1 -2 7 -11 14 -20z m-3758 8 c0 -11 -19 -15 -25 -6 -3 5 1 10 9
10 9 0 16 -2 16 -4z m976 -38 c-9 -5 -16 -20 -16 -32 0 -13 -8 -27 -17 -31
-21 -9 -64 -6 -78 5 -5 4 -21 10 -35 13 -14 3 -39 11 -56 17 -36 15 -104 6
-104 -15 0 -18 -39 -30 -52 -17 -8 8 -3 13 16 18 14 3 26 11 26 18 0 6 21 19
46 29 45 16 47 16 71 -3 14 -11 32 -20 40 -20 7 0 30 -8 51 -18 54 -26 78 -19
87 26 9 49 16 58 28 37 7 -13 5 -20 -7 -27z m-1736 16 c0 -2 -9 -4 -21 -4 -11
0 -18 4 -14 10 5 8 35 3 35 -6z m2414 1 c-4 -8 -12 -15 -20 -15 -8 0 -14 7
-14 15 0 8 9 15 20 15 13 0 18 -5 14 -15z m56 11 c0 -2 -9 -6 -20 -9 -11 -3
-20 -1 -20 4 0 5 9 9 20 9 11 0 20 -2 20 -4z m733 -3 c-7 -2 -19 -2 -25 0 -7
3 -2 5 12 5 14 0 19 -2 13 -5z m461 -8 c-4 -8 -10 -12 -15 -9 -11 6 -2 24 11
24 5 0 7 -7 4 -15z m691 5 c-3 -5 -12 -10 -18 -10 -7 0 -6 4 3 10 19 12 23 12
15 0z m62 4 c-3 -3 -12 -4 -19 -1 -8 3 -5 6 6 6 11 1 17 -2 13 -5z m-6720 -20
c4 -12 14 -14 36 -10 25 5 28 4 17 -9 -7 -8 -15 -13 -19 -11 -3 2 -25 1 -47
-3 -28 -5 -47 -4 -58 5 -16 11 -15 14 11 28 36 20 52 20 60 0z m4673 12 c0
-11 -19 -15 -25 -6 -3 5 1 10 9 10 9 0 16 -2 16 -4z m856 -11 c-23 -17 -42
-19 -51 -6 -3 5 9 12 27 14 18 2 35 4 38 5 3 1 -4 -5 -14 -13z m777 -5 c3 -13
10 -18 21 -14 9 3 16 1 16 -5 0 -6 6 -11 14 -11 8 0 18 -4 21 -10 3 -6 -1 -7
-9 -4 -9 3 -16 1 -16 -6 0 -6 -6 -8 -12 -5 -7 4 -5 0 6 -9 11 -9 29 -13 46 -9
15 3 31 0 34 -6 4 -6 2 -12 -3 -12 -26 -3 -30 -4 -37 -11 -4 -4 -13 -3 -20 2
-6 6 -16 10 -20 9 -5 -1 -26 -1 -46 0 -29 1 -38 5 -38 19 0 13 2 14 9 4 7 -12
12 -12 30 -1 11 8 21 17 21 21 0 12 -58 10 -65 -2 -10 -16 -22 -11 -28 12 -8
29 1 42 19 27 19 -16 30 -4 14 16 -11 13 -9 15 13 15 16 0 26 -7 30 -20z
m-3758 0 c21 -6 5 -8 -52 -7 -46 1 -83 5 -83 9 0 10 95 8 135 -2z m121 -6
c-22 -12 -30 -13 -36 -4 -4 7 -13 9 -19 6 -6 -4 -11 -2 -11 3 0 6 20 11 48 11
l47 -1 -29 -15z m2744 6 c0 -5 -9 -10 -21 -10 -11 0 -17 5 -14 10 3 6 13 10
21 10 8 0 14 -4 14 -10z m-5225 -19 c-3 -6 -11 -8 -17 -5 -6 4 -5 9 3 15 16
10 23 4 14 -10z m2203 12 c-10 -2 -28 -2 -40 0 -13 2 -5 4 17 4 22 1 32 -1 23
-4z m3360 -5 c-5 -16 -48 -24 -48 -9 0 8 17 16 43 20 5 0 7 -5 5 -11z m-518
-13 c0 -2 -7 -5 -15 -9 -9 -3 -15 0 -15 9 0 9 6 12 15 9 8 -4 15 -7 15 -9z
m-515 -5 c3 -5 -1 -10 -9 -10 -9 0 -16 5 -16 10 0 6 4 10 9 10 6 0 13 -4 16
-10z m565 0 c0 -5 -7 -10 -16 -10 -8 0 -12 5 -9 10 3 6 10 10 16 10 5 0 9 -4
9 -10z m100 1 c0 -6 -4 -13 -10 -16 -5 -3 -10 1 -10 9 0 9 5 16 10 16 6 0 10
-4 10 -9z m-3373 -7 c-3 -3 -12 -4 -19 -1 -8 3 -5 6 6 6 11 1 17 -2 13 -5z
m210 0 c-3 -3 -12 -4 -19 -1 -8 3 -5 6 6 6 11 1 17 -2 13 -5z m2618 -21 c-4
-13 1 -15 35 -9 24 4 40 2 40 -4 0 -5 -17 -10 -39 -10 -21 0 -51 -2 -67 -4
-16 -2 -21 -1 -12 1 10 2 21 15 24 29 3 13 10 21 16 18 5 -3 7 -13 3 -21z
m181 16 c8 -14 -4 -25 -36 -33 l-25 -7 25 16 25 16 -27 -5 c-26 -6 -44 5 -31
18 10 10 61 7 69 -5z m311 -11 c-3 -8 -6 -5 -6 6 -1 11 2 17 5 13 3 -3 4 -12
1 -19z m1614 -10 c11 -7 9 -8 -5 -6 -25 4 -35 -33 -29 -103 l4 -51 -28 7 c-50
12 -58 27 -24 41 17 7 31 18 31 25 0 9 -3 9 -14 0 -10 -8 -16 -9 -21 -1 -3 5
-14 10 -23 9 -14 0 -14 -2 2 -8 13 -5 16 -10 8 -15 -6 -4 -19 2 -29 14 -24 28
-36 25 -29 -6 4 -16 3 -23 -3 -20 -5 4 -14 -1 -19 -10 -8 -15 -10 -15 -15 0
-4 10 -1 16 9 16 10 0 13 7 8 24 -4 18 -1 25 13 29 10 3 1 5 -19 6 -21 0 -38
6 -38 12 0 6 9 8 20 4 11 -4 20 -2 20 4 0 6 -7 11 -15 11 -8 0 -15 3 -15 8 0
4 19 5 43 3 23 -3 34 -6 25 -9 -10 -2 -18 -8 -18 -14 0 -6 9 -8 19 -5 12 3 22
-1 26 -11 5 -13 8 -12 20 4 13 17 14 17 15 2 0 -32 17 -19 35 28 11 29 20 42
25 34 4 -7 14 -17 21 -22z m-6911 12 c0 -5 -9 -10 -20 -10 -11 0 -20 5 -20 10
0 6 9 10 20 10 11 0 20 -4 20 -10z m5410 0 c12 -8 11 -10 -7 -10 -13 0 -23 5
-23 10 0 13 11 13 30 0z m423 -3 c21 5 21 4 -3 -16 -14 -11 -38 -20 -55 -20
l-30 0 28 15 c15 8 27 20 28 27 0 8 2 9 5 1 3 -7 15 -10 27 -7z m747 3 c0 -5
-4 -10 -10 -10 -5 0 -10 5 -10 10 0 6 5 10 10 10 6 0 10 -4 10 -10z m-7153 -6
c-3 -3 -12 -4 -19 -1 -8 3 -5 6 6 6 11 1 17 -2 13 -5z m5723 -4 c-8 -5 -22 -9
-30 -9 -10 0 -8 3 5 9 27 12 43 12 25 0z m130 6 c0 -3 -4 -8 -10 -11 -5 -3
-10 -1 -10 4 0 6 5 11 10 11 6 0 10 -2 10 -4z m630 -5 c0 -5 33 -13 73 -19
l72 -9 -79 -1 c-53 0 -84 5 -93 13 -10 11 -10 14 0 18 19 8 27 8 27 -2z m554
2 c4 -5 29 -8 54 -8 l47 0 -3 -38 c-3 -27 0 -38 10 -36 46 6 51 -14 7 -30 -26
-9 -30 -8 -25 4 3 10 -1 15 -12 15 -13 0 -14 2 -3 9 8 5 10 14 6 21 -5 9 -28
11 -76 8 -38 -3 -69 -1 -69 3 0 5 9 9 19 9 11 0 23 5 26 10 3 6 -4 10 -17 10
-22 1 -22 1 -4 15 22 17 29 18 40 8z m165 -44 c1 -11 -7 -16 -24 -16 -20 0
-25 5 -25 23 0 15 6 24 15 24 8 0 15 6 16 13 1 16 17 -23 18 -44z m-1181 10
c-19 -13 -28 -11 -28 5 0 9 7 12 21 9 16 -4 17 -8 7 -14z m-751 5 c-3 -3 -12
-4 -19 -1 -8 3 -5 6 6 6 11 1 17 -2 13 -5z m1508 -4 c-3 -5 -10 -10 -16 -10
-5 0 -9 5 -9 10 0 6 7 10 16 10 8 0 12 -4 9 -10z m475 -6 c0 -2 -9 -4 -20 -4
-11 0 -20 4 -20 9 0 5 9 7 20 4 11 -3 20 -7 20 -9z m-1784 -17 c4 -4 0 -15 -9
-24 -12 -12 -17 -13 -17 -4 0 9 -4 8 -16 -3 -19 -19 -34 -21 -34 -3 0 9 -3 8
-9 -2 -6 -9 -11 -10 -15 -2 -4 6 -39 12 -79 12 -54 1 -65 3 -42 9 24 6 15 8
-40 10 l-70 3 55 8 c69 9 266 6 276 -4z m-1243 -4 c-7 -2 -21 -2 -30 0 -10 3
-4 5 12 5 17 0 24 -2 18 -5z m3247 -3 c0 -6 7 -10 16 -8 10 2 19 -3 22 -10 3
-10 -4 -13 -24 -10 -27 3 -50 38 -25 38 6 0 11 -5 11 -10z m-930 -14 c0 -2 -7
-7 -16 -10 -8 -3 -12 -2 -9 4 6 10 25 14 25 6z m270 -6 c0 -5 -5 -10 -11 -10
-5 0 -7 5 -4 10 3 6 8 10 11 10 2 0 4 -4 4 -10z m-2672 -34 c-8 -6 -17 -18
-20 -26 -5 -13 -7 -12 -13 3 -5 12 0 23 16 36 15 12 26 15 28 9 2 -6 -3 -16
-11 -22z m62 8 c0 -8 -4 -12 -10 -9 -5 3 -10 13 -10 21 0 8 5 12 10 9 6 -3 10
-13 10 -21z m2270 16 c12 -8 11 -10 -7 -10 -13 0 -23 5 -23 10 0 13 11 13 30
0z m598 -9 c4 -11 0 -12 -14 -6 -11 5 -36 9 -56 9 -21 0 -38 4 -38 9 0 14 103
3 108 -12z m202 -2 c0 -5 -7 -9 -15 -9 -8 0 -15 7 -15 15 0 9 6 12 15 9 8 -4
15 -10 15 -15z m-1950 1 c0 -6 6 -10 13 -9 33 4 48 -4 17 -10 -19 -4 -38 -2
-42 3 -4 6 -15 6 -30 0 -25 -10 -88 -7 -88 5 0 4 15 5 34 3 19 -2 43 1 53 7
23 13 43 14 43 1z m-490 -10 c0 -5 -4 -10 -10 -10 -5 0 -10 5 -10 10 0 6 5 10
10 10 6 0 10 -4 10 -10z m1766 -32 c-9 -12 -16 -17 -16 -10 0 14 23 42 29 37
1 -2 -4 -14 -13 -27z m914 23 c0 -5 -7 -12 -16 -15 -22 -9 -24 -8 -24 9 0 8 9
15 20 15 11 0 20 -4 20 -9z m-320 -11 c0 -5 -2 -10 -4 -10 -3 0 -8 5 -11 10
-3 6 -1 10 4 10 6 0 11 -4 11 -10z m-3125 -25 c-16 -14 -37 -25 -45 -25 -9 0
-4 9 15 25 17 13 37 24 45 24 9 0 4 -9 -15 -24z m-65 -42 c0 -9 -3 -13 -7 -10
-3 4 -12 2 -19 -4 -15 -12 -44 -5 -44 10 0 6 6 8 14 5 8 -3 17 -1 21 5 10 17
35 13 35 -6z m-475 -13 c13 -6 15 -9 5 -9 -8 0 -22 4 -30 9 -18 12 -2 12 25 0z
m3498 3 c-7 -2 -19 -2 -25 0 -7 3 -2 5 12 5 14 0 19 -2 13 -5z m-3528 -23 c-3
-5 -10 -10 -16 -10 -5 0 -9 5 -9 10 0 6 7 10 16 10 8 0 12 -4 9 -10z m103 -7
c-10 -2 -26 -2 -35 0 -10 3 -2 5 17 5 19 0 27 -2 18 -5z m109 1 c-3 -3 -12 -4
-19 -1 -8 3 -5 6 6 6 11 1 17 -2 13 -5z m260 -19 l3 -20 -9 20 c-7 15 -10 8
-10 -32 -1 -29 3 -53 8 -53 5 0 11 4 13 10 2 5 3 -10 4 -35 0 -25 -2 -45 -5
-45 -9 0 -41 60 -41 76 0 10 -5 12 -12 8 -9 -6 -9 -3 1 9 7 9 12 31 9 50 -3
29 -1 34 17 33 12 -1 21 -9 22 -21z m-647 -8 c0 -14 -20 -37 -32 -37 -6 0 -5
25 1 48 3 9 31 -1 31 -11z m435 -27 c-3 -5 -13 -10 -21 -10 -8 0 -12 5 -9 10
3 6 13 10 21 10 8 0 12 -4 9 -10z m-490 -20 c3 -5 2 -10 -4 -10 -5 0 -13 5
-16 10 -3 6 -2 10 4 10 5 0 13 -4 16 -10z m339 -61 c-8 -14 -24 -10 -24 6 0 9
6 12 15 9 8 -4 12 -10 9 -15z m-2159 -19 c-20 -9 73 -7 200 4 40 3 30 0 -30
-9 -81 -13 -320 -17 -308 -5 5 5 92 17 133 18 23 1 23 0 5 -8z m-798 -6 c-3
-3 -12 -4 -19 -1 -8 3 -5 6 6 6 11 1 17 -2 13 -5z m3066 -1 c-7 -2 -13 -11
-13 -19 0 -8 -7 -14 -15 -14 -8 0 -15 4 -15 10 0 10 30 30 45 29 6 0 4 -3 -2
-6z m284 -45 c-3 -8 -6 -5 -6 6 -1 11 2 17 5 13 3 -3 4 -12 1 -19z m923 -26
c19 -26 41 -58 47 -71 15 -27 17 -53 3 -31 -7 12 -10 8 -10 -15 l-1 -30 -10
25 c-6 14 -11 30 -12 35 -1 6 -4 12 -7 15 -8 8 -60 107 -60 114 0 16 18 1 50
-42z m-1300 28 c0 -5 -4 -10 -9 -10 -6 0 -13 5 -16 10 -3 6 1 10 9 10 9 0 16
-4 16 -10z m-640 -20 c0 -7 -24 -20 -36 -20 -2 0 -4 9 -4 19 0 14 5 18 20 14
11 -3 20 -9 20 -13z m-300 -35 c0 -8 -7 -15 -15 -15 -16 0 -20 12 -8 23 11 12
23 8 23 -8z m1070 -49 c0 -2 -7 -6 -15 -10 -8 -3 -15 -1 -15 4 0 6 7 10 15 10
8 0 15 -2 15 -4z m-1013 -22 c-3 -3 -12 -4 -19 -1 -8 3 -5 6 6 6 11 1 17 -2
13 -5z m-187 -21 c0 -8 -31 -36 -35 -31 -10 10 8 46 21 41 8 -3 14 -7 14 -10z
m-211 -28 c22 7 24 3 15 -32 -7 -26 -24 -31 -24 -7 0 8 -4 13 -9 10 -9 -6 -21
16 -21 37 0 8 3 7 9 -2 5 -8 16 -11 30 -6z m1651 -52 c-11 -17 -11 -17 -6 0 3
10 7 26 7 35 1 15 2 15 6 0 2 -10 -1 -25 -7 -35z m-2020 18 c-5 -11 -15 -23
-22 -27 -6 -4 -9 -3 -6 2 3 5 8 17 11 27 4 9 11 17 17 17 8 0 8 -6 0 -19z
m240 10 c0 -6 -4 -13 -10 -16 -5 -3 -10 1 -10 9 0 9 5 16 10 16 6 0 10 -4 10
-9z m90 -12 c0 -18 -2 -19 -15 -9 -12 10 -18 10 -30 0 -16 -13 -18 -10 -10 12
3 8 17 15 30 16 19 1 25 -3 25 -19z m150 11 c0 -5 -15 -10 -32 -9 -28 0 -30 2
-13 9 28 12 45 12 45 0z m-57 -31 c8 1 8 0 1 -39 -4 -16 -13 -35 -21 -41 -11
-10 -12 -8 -3 15 5 15 10 33 9 39 0 7 -5 0 -11 -16 -13 -35 -29 -26 -17 11 23
69 22 68 29 48 3 -10 9 -17 13 -17z m-293 -29 c0 -5 -5 -10 -11 -10 -5 0 -7 5
-4 10 3 6 8 10 11 10 2 0 4 -4 4 -10z m1844 -20 c-17 -34 -34 -48 -34 -28 0
17 28 58 40 58 5 0 2 -13 -6 -30z m586 -15 c0 -8 -4 -15 -10 -15 -5 0 -10 7
-10 15 0 8 5 15 10 15 6 0 10 -7 10 -15z m-2306 -17 c3 -13 0 -29 -7 -36 -11
-10 -13 -6 -14 23 -1 39 12 47 21 13z m2171 12 c-3 -5 -25 -9 -48 -8 l-42 1
45 7 c25 4 46 8 48 8 2 1 0 -2 -3 -8z m101 3 c-11 -11 -35 -12 -42 -2 -3 5 7
9 22 9 15 0 24 -3 20 -7z m-623 -21 c16 23 16 22 6 -10 -6 -18 -9 -44 -7 -57
3 -13 1 -23 -5 -22 -18 4 -18 -21 0 -26 14 -4 12 -5 -6 -6 -19 -1 -22 3 -18
19 3 11 1 22 -4 25 -5 4 -7 16 -5 28 2 12 0 29 -5 38 -5 9 -5 19 -2 23 4 4 12
-3 18 -14 l12 -22 16 24z m1082 -12 c-3 -5 -12 -10 -18 -10 -7 0 -6 4 3 10 19
12 23 12 15 0z m-3549 -55 c-8 -8 -18 -15 -22 -15 -3 0 -1 7 6 15 7 8 17 15
22 15 5 0 3 -7 -6 -15z m584 -41 c0 -2 -9 -4 -21 -4 -11 0 -18 4 -14 10 5 8
35 3 35 -6z m-63 -46 c-3 -7 -5 -2 -5 12 0 14 2 19 5 13 2 -7 2 -19 0 -25z
m20 10 c-3 -8 -6 -5 -6 6 -1 11 2 17 5 13 3 -3 4 -12 1 -19z m1873 -33 c0 -14
-4 -25 -10 -25 -11 0 -14 33 -3 43 11 11 13 8 13 -18z m68 -14 c-1 -9 0 -21 4
-26 10 -16 -5 -76 -17 -67 -6 4 -16 19 -24 35 -11 21 -12 30 -3 39 7 7 12 23
12 36 0 21 2 23 15 12 9 -7 15 -20 13 -29z m70 32 c-10 -2 -18 -9 -18 -14 0
-5 -7 -9 -15 -9 -8 0 -15 4 -15 9 0 10 24 19 50 19 10 0 9 -2 -2 -5z m-37 -70
c-9 -16 -10 -14 -11 12 0 21 3 26 11 18 8 -8 8 -16 0 -30z m549 33 c0 -11 -19
-15 -25 -6 -3 5 1 10 9 10 9 0 16 -2 16 -4z m310 -62 c0 -8 -4 -12 -10 -9 -5
3 -10 10 -10 16 0 5 5 9 10 9 6 0 10 -7 10 -16z m-168 -101 c-4 -92 6 -110 14
-27 5 52 14 73 14 33 0 -14 7 -35 16 -47 9 -13 13 -29 10 -37 -7 -18 2 -19 36
-3 14 7 29 21 34 32 12 26 34 32 34 9 0 -10 -16 -36 -35 -57 -29 -33 -37 -37
-50 -26 -11 10 -18 10 -29 1 -11 -10 -16 -8 -21 8 -3 12 -13 21 -21 21 -8 0
-14 9 -14 20 0 11 -7 20 -15 20 -21 0 -19 50 2 65 15 11 15 15 3 30 -13 15
-12 19 5 31 10 8 19 14 19 14 1 0 0 -39 -2 -87z m-2722 63 c0 -3 -4 -8 -10
-11 -5 -3 -10 -1 -10 4 0 6 5 11 10 11 6 0 10 -2 10 -4z m2880 -44 c0 -10 -7
-19 -15 -19 -27 0 -18 27 13 36 1 1 2 -7 2 -17z m-94 -60 c-11 -10 -14 3 -8
33 l7 30 3 -28 c2 -16 1 -31 -2 -35z m44 13 c-6 -30 -8 -33 -9 -13 -1 25 8 62
14 56 2 -2 -1 -21 -5 -43z m-471 -11 c-20 -25 5 -42 30 -20 19 18 20 17 34
-15 15 -38 5 -49 -22 -25 -14 12 -20 13 -30 3 -9 -9 -14 -9 -21 2 -7 13 -11
13 -26 1 -15 -13 -16 -12 -10 18 5 19 4 32 -3 32 -5 0 -11 -10 -13 -22 -2 -12
-9 -23 -17 -26 -17 -6 -6 32 17 59 20 24 32 24 32 2 1 -16 3 -15 18 3 9 12 19
18 20 13 2 -6 -2 -16 -9 -25z m-2783 -40 c-6 -16 -26 -19 -26 -5 0 5 5 22 12
38 11 27 12 27 16 5 2 -13 1 -30 -2 -38z m-119 -16 c-3 -7 -5 -2 -5 12 0 14 2
19 5 13 2 -7 2 -19 0 -25z m2613 -18 c0 -11 -4 -20 -10 -20 -5 0 -10 9 -10 20
0 11 5 20 10 20 6 0 10 -9 10 -20z m95 0 c3 -5 -1 -10 -9 -10 -9 0 -16 5 -16
10 0 6 4 10 9 10 6 0 13 -4 16 -10z m706 -31 l-10 -24 0 26 c-1 14 2 29 6 33
12 12 14 -9 4 -35z m-1326 -9 c2 -29 -8 -39 -20 -21 -3 5 -1 13 5 16 6 4 8 16
4 28 -3 12 -3 19 1 15 5 -5 9 -21 10 -38z m529 -11 c-6 -11 -24 -2 -24 11 0 5
7 7 15 4 8 -4 12 -10 9 -15z m1676 11 c0 -5 -2 -10 -4 -10 -3 0 -8 5 -11 10
-3 6 -1 10 4 10 6 0 11 -4 11 -10z m-2330 -14 c0 -3 -4 -8 -10 -11 -5 -3 -10
-1 -10 4 0 6 5 11 10 11 6 0 10 -2 10 -4z m593 -16 c3 -11 1 -20 -4 -20 -5 0
-9 9 -9 20 0 11 2 20 4 20 2 0 6 -9 9 -20z m-397 1 c-3 -5 -15 -7 -26 -4 -28
7 -25 13 6 13 14 0 23 -4 20 -9z m-316 -11 c0 -5 -4 -10 -10 -10 -5 0 -10 5
-10 10 0 6 5 10 10 10 6 0 10 -4 10 -10z m2410 1 c0 -6 -4 -12 -9 -15 -5 -3
-7 -16 -4 -29 4 -21 4 -20 -10 3 -9 17 -10 29 -4 38 11 14 27 16 27 3z m-1623
-83 c-2 -13 -4 -3 -4 22 0 25 2 35 4 23 2 -13 2 -33 0 -45z m-42 13 c-19 -38
-40 -52 -30 -21 8 26 26 49 38 50 4 0 1 -13 -8 -29z m82 -18 c-3 -10 -5 -4 -5
12 0 17 2 24 5 18 2 -7 2 -21 0 -30z m826 12 c3 -16 0 -24 -7 -22 -14 4 -21
47 -8 47 5 0 12 -11 15 -25z m47 6 c0 -12 -20 -25 -27 -18 -7 7 6 27 18 27 5
0 9 -4 9 -9z m-1030 -15 c0 -3 -4 -8 -10 -11 -5 -3 -10 -1 -10 4 0 6 5 11 10
11 6 0 10 -2 10 -4z m1130 -10 c0 -24 -18 -28 -30 -6 -9 17 -8 20 10 20 11 0
20 -6 20 -14z m190 -17 c0 -10 -4 -19 -10 -19 -5 0 -10 12 -10 26 0 14 4 23
10 19 6 -3 10 -15 10 -26z m193 4 c-7 -3 -13 -12 -13 -20 0 -9 -2 -14 -5 -11
-4 3 -3 18 1 33 5 20 9 24 18 14 8 -8 8 -13 -1 -16z m64 -35 c-3 -7 -5 -2 -5
12 0 14 2 19 5 13 2 -7 2 -19 0 -25z m1670 -95 c-2 -16 -4 -5 -4 22 0 28 2 40
4 28 2 -13 2 -35 0 -50z m-935 -25 c2 -13 1 -34 -2 -48 -6 -24 -7 -23 -13 9
-4 18 -7 40 -7 47 0 23 17 16 22 -8z m-5902 -8 c0 -5 -4 -10 -10 -10 -5 0 -10
5 -10 10 0 6 5 10 10 10 6 0 10 -4 10 -10z m50 0 c0 -5 -4 -10 -10 -10 -5 0
-10 5 -10 10 0 6 5 10 10 10 6 0 10 -4 10 -10z m2447 -12 c-3 -8 -6 -5 -6 6
-1 11 2 17 5 13 3 -3 4 -12 1 -19z m2793 12 c0 -5 -4 -10 -10 -10 -5 0 -10 5
-10 10 0 6 5 10 10 10 6 0 10 -4 10 -10z m-2834 -145 c-3 -5 -5 -2 -5 7 -1 9
-5 18 -11 20 -5 2 -12 26 -15 53 l-5 50 20 -60 c11 -33 18 -64 16 -70z m14 85
c0 -5 -5 -10 -11 -10 -5 0 -7 5 -4 10 3 6 8 10 11 10 2 0 4 -4 4 -10z m1327
-12 c-3 -8 -6 -5 -6 6 -1 11 2 17 5 13 3 -3 4 -12 1 -19z m-3972 1 c11 -17 -1
-21 -15 -4 -8 9 -8 15 -2 15 6 0 14 -5 17 -11z m4029 -24 c4 -11 -2 -15 -20
-15 -21 0 -23 2 -12 15 17 18 24 19 32 0z m-1458 -91 c-13 -14 -19 -10 -22 13
-4 27 7 36 21 17 9 -13 9 -21 1 -30z m120 -1 c-11 -11 -19 6 -11 24 8 17 8 17
12 0 3 -10 2 -21 -1 -24z m68 18 c3 -5 -1 -14 -9 -21 -10 -8 -15 -9 -15 -2 0
6 -7 9 -15 6 -8 -4 -15 -1 -15 4 0 9 15 16 42 21 4 0 9 -3 12 -8z m-125 -54
c1 -10 -3 -16 -7 -13 -5 3 -9 20 -9 38 -1 27 1 29 7 13 5 -11 9 -28 9 -38z
m-109 29 c0 -8 -4 -18 -10 -21 -5 -3 -10 3 -10 14 0 12 5 21 10 21 6 0 10 -6
10 -14z m13 -135 c3 -14 0 -17 -13 -14 -12 3 -16 11 -13 24 6 22 18 17 26 -10z
m-548 -41 c2 -22 -21 -35 -31 -18 -4 7 -2 14 4 16 7 2 12 11 12 20 0 21 13 6
15 -18z m515 -6 c0 -8 -4 -12 -10 -9 -5 3 -10 10 -10 16 0 5 5 9 10 9 6 0 10
-7 10 -16z m-530 -78 c0 -2 -7 -6 -15 -10 -8 -3 -15 -1 -15 4 0 6 7 10 15 10
8 0 15 -2 15 -4z m4917 -183 c-11 -3 -16 -11 -13 -19 3 -8 -1 -14 -9 -14 -8 0
-13 9 -12 20 1 15 8 20 27 19 18 -1 20 -3 7 -6z m-2271 -78 c-2 -6 2 -36 10
-65 8 -30 14 -66 14 -80 0 -25 0 -25 -16 5 -9 17 -17 66 -20 115 -3 65 -2 79
6 61 6 -14 9 -30 6 -36z m-979 19 c-3 -3 -12 -4 -19 -1 -8 3 -5 6 6 6 11 1 17
-2 13 -5z m1233 -24 c0 -31 -15 -30 -16 1 -1 15 3 26 7 23 5 -3 9 -14 9 -24z
m-760 6 c0 -3 -4 -8 -10 -11 -5 -3 -10 -1 -10 4 0 6 5 11 10 11 6 0 10 -2 10
-4z m-45 -19 c8 -9 10 -19 4 -28 -6 -10 -9 -10 -9 -1 0 6 -4 12 -10 12 -5 0
-7 -7 -4 -15 4 -9 0 -15 -10 -15 -17 0 -20 17 -10 44 7 20 21 20 39 3z m-75
-1 c0 -2 -7 -6 -15 -10 -8 -3 -15 -1 -15 4 0 6 7 10 15 10 8 0 15 -2 15 -4z
m247 -2 c-3 -3 -12 -4 -19 -1 -8 3 -5 6 6 6 11 1 17 -2 13 -5z m-127 -8 c0 -3
-4 -8 -10 -11 -5 -3 -10 -1 -10 4 0 6 5 11 10 11 6 0 10 -2 10 -4z m120 -26
c0 -5 -4 -10 -10 -10 -5 0 -10 5 -10 10 0 6 5 10 10 10 6 0 10 -4 10 -10z m40
0 c0 -5 -4 -10 -10 -10 -5 0 -10 5 -10 10 0 6 5 10 10 10 6 0 10 -4 10 -10z
m490 6 c0 -3 -4 -8 -10 -11 -5 -3 -10 -1 -10 4 0 6 5 11 10 11 6 0 10 -2 10
-4z m-1103 -28 c-3 -8 -6 -5 -6 6 -1 11 2 17 5 13 3 -3 4 -12 1 -19z m440 0
c-3 -8 -6 -5 -6 6 -1 11 2 17 5 13 3 -3 4 -12 1 -19z m367 10 c2 -2 6 -20 9
-40 7 -48 -9 -50 -17 -2 -6 29 -10 34 -27 29 -11 -4 -26 0 -35 10 -15 15 -13
16 26 11 23 -2 43 -6 44 -8z m230 -3 c3 -8 1 -15 -4 -15 -6 0 -10 7 -10 15 0
8 2 15 4 15 2 0 6 -7 10 -15z m-1201 -8 c4 3 7 -1 7 -10 0 -10 -8 -17 -20 -17
-14 0 -20 7 -20 21 0 17 3 19 13 10 8 -6 17 -8 20 -4z m382 -6 c3 -5 1 -12 -5
-16 -5 -3 -10 1 -10 9 0 18 6 21 15 7z m-141 -36 c-6 -16 -24 -21 -24 -7 0 11
11 22 21 22 5 0 6 -7 3 -15z m156 -4 c0 -6 -4 -13 -10 -16 -5 -3 -10 1 -10 9
0 9 5 16 10 16 6 0 10 -4 10 -9z m-510 -31 c0 -5 -6 -10 -14 -10 -8 0 -18 5
-21 10 -3 6 3 10 14 10 12 0 21 -4 21 -10z m1120 -40 c0 -5 -4 -10 -10 -10 -5
0 -10 5 -10 10 0 6 5 10 10 10 6 0 10 -4 10 -10z m-1219 -73 c-10 -9 -11 -8
-5 6 3 10 9 15 12 12 3 -3 0 -11 -7 -18z m471 -14 c-4 -10 -22 -46 -39 -80
-32 -60 -53 -86 -53 -63 0 12 44 102 68 138 17 26 35 30 24 5z m-875 -45 c-3
-8 -6 -5 -6 6 -1 11 2 17 5 13 3 -3 4 -12 1 -19z m-566 -29 c-6 -24 -9 -28
-10 -12 -1 24 9 56 16 50 2 -3 0 -20 -6 -38z m426 -41 c-3 -7 -5 -2 -5 12 0
14 2 19 5 13 2 -7 2 -19 0 -25z m384 -9 c-5 -13 -10 -19 -10 -12 -1 15 10 45
15 40 3 -2 0 -15 -5 -28z m344 -19 c3 -5 0 -10 -7 -11 -10 0 -10 -2 0 -6 6 -2
10 -9 7 -14 -8 -13 -33 13 -28 28 6 16 19 17 28 3z m-35 -40 c0 -5 -4 -10 -10
-10 -5 0 -10 5 -10 10 0 6 5 10 10 10 6 0 10 -4 10 -10z m59 -14 c-2 -2 -15
-9 -29 -16 -23 -12 -24 -12 -11 3 7 10 20 17 29 17 8 0 13 -2 11 -4z m161 -26
c0 -5 -5 -10 -11 -10 -5 0 -7 5 -4 10 3 6 8 10 11 10 2 0 4 -4 4 -10z"/>
<path d="M5868 3073 c7 -3 16 -2 19 1 4 3 -2 6 -13 5 -11 0 -14 -3 -6 -6z"/>
<path d="M5795 3031 c-10 -18 36 -24 53 -7 15 15 14 16 -15 16 -18 0 -34 -4
-38 -9z"/>
<path d="M5920 3010 c0 -5 7 -10 15 -10 8 0 15 5 15 10 0 6 -7 10 -15 10 -8 0
-15 -4 -15 -10z"/>
<path d="M7220 2790 c36 -11 50 -11 50 0 0 6 -17 10 -37 9 -34 -1 -35 -2 -13
-9z"/>
<path d="M5420 5049 c0 -5 5 -7 10 -4 6 3 10 8 10 11 0 2 -4 4 -10 4 -5 0 -10
-5 -10 -11z"/>
<path d="M3610 2470 c0 -5 5 -10 10 -10 6 0 10 5 10 10 0 6 -4 10 -10 10 -5 0
-10 -4 -10 -10z"/>
<path d="M3552 2370 c0 -19 2 -27 5 -17 2 9 2 25 0 35 -3 9 -5 1 -5 -18z"/>
<path d="M3018 2323 c7 -3 16 -2 19 1 4 3 -2 6 -13 5 -11 0 -14 -3 -6 -6z"/>
<path d="M3548 2288 c-2 -53 3 -92 14 -105 5 -7 7 -17 3 -22 -3 -6 -1 -20 5
-31 22 -40 27 -18 14 53 -8 39 -14 87 -14 105 0 17 -4 32 -10 32 -5 0 -11 -15
-12 -32z"/>
<path d="M3015 2290 c-3 -5 1 -10 9 -10 9 0 16 5 16 10 0 6 -4 10 -9 10 -6 0
-13 -4 -16 -10z"/>
<path d="M3100 2276 c0 -2 7 -7 16 -10 8 -3 12 -2 9 4 -6 10 -25 14 -25 6z"/>
<path d="M3024 2251 c3 -5 15 -7 26 -4 28 7 25 13 -6 13 -14 0 -23 -4 -20 -9z"/>
<path d="M3590 2240 c0 -5 5 -10 10 -10 6 0 10 5 10 10 0 6 -4 10 -10 10 -5 0
-10 -4 -10 -10z"/>
<path d="M3433 2219 c-12 -4 -49 -11 -82 -15 -33 -3 -59 -10 -56 -13 5 -9 157
9 168 19 14 12 -6 18 -30 9z"/>
<path d="M2795 2200 c3 -5 8 -10 11 -10 2 0 4 5 4 10 0 6 -5 10 -11 10 -5 0
-7 -4 -4 -10z"/>
<path d="M2745 2180 c-3 -5 -1 -10 4 -10 6 0 11 5 11 10 0 6 -2 10 -4 10 -3 0
-8 -4 -11 -10z"/>
<path d="M3248 2183 c7 -3 16 -2 19 1 4 3 -2 6 -13 5 -11 0 -14 -3 -6 -6z"/>
<path d="M3615 2180 c3 -5 8 -10 11 -10 2 0 4 5 4 10 0 6 -5 10 -11 10 -5 0
-7 -4 -4 -10z"/>
<path d="M3816 2124 c-9 -22 3 -32 14 -14 12 19 12 30 1 30 -5 0 -12 -7 -15
-16z"/>
<path d="M2430 2040 c0 -5 5 -10 10 -10 6 0 10 5 10 10 0 6 -4 10 -10 10 -5 0
-10 -4 -10 -10z"/>
<path d="M2310 1985 c0 -8 2 -15 4 -15 2 0 6 7 10 15 3 8 1 15 -4 15 -6 0 -10
-7 -10 -15z"/>
<path d="M3810 1930 c0 -39 14 -39 17 0 1 17 -2 30 -7 30 -6 0 -10 -13 -10
-30z"/>
<path d="M3810 1880 c0 -5 4 -10 9 -10 6 0 13 5 16 10 3 6 -1 10 -9 10 -9 0
-16 -4 -16 -10z"/>
<path d="M3807 1854 c-8 -8 1 -24 14 -24 5 0 9 7 9 15 0 15 -12 20 -23 9z"/>
<path d="M3810 1786 c0 -15 7 -26 20 -29 13 -3 20 0 20 9 0 8 -4 14 -10 14 -5
0 -10 7 -10 15 0 8 -4 15 -10 15 -5 0 -10 -11 -10 -24z"/>
<path d="M3935 1710 c-4 -6 -3 -16 3 -22 6 -6 12 -6 17 2 4 6 3 16 -3 22 -6 6
-12 6 -17 -2z"/>
<path d="M3792 1645 c0 -16 2 -22 5 -12 2 9 2 23 0 30 -3 6 -5 -1 -5 -18z"/>
<path d="M3970 1621 c0 -6 5 -13 10 -16 6 -3 10 1 10 9 0 9 -4 16 -10 16 -5 0
-10 -4 -10 -9z"/>
<path d="M4006 1593 c1 -47 15 -113 26 -119 7 -5 9 1 5 17 -3 13 -9 48 -13 77
-7 55 -19 71 -18 25z"/>
<path d="M3922 1585 c0 -16 2 -22 5 -12 2 9 2 23 0 30 -3 6 -5 -1 -5 -18z"/>
<path d="M2643 1138 c3 -32 1 -58 -4 -58 -5 0 -9 -7 -9 -15 0 -7 -7 -18 -15
-23 -14 -7 -14 -11 0 -38 l15 -29 1 30 c0 17 3 24 6 18 2 -7 13 -13 24 -13 18
0 19 5 13 66 -3 36 -12 77 -20 92 -14 26 -15 24 -11 -30z"/>
<path d="M3532 1110 c0 -19 2 -27 5 -17 2 9 2 25 0 35 -3 9 -5 1 -5 -18z"/>
<path d="M2612 1110 c0 -14 2 -19 5 -12 2 6 2 18 0 25 -3 6 -5 1 -5 -13z"/>
<path d="M3470 1100 c0 -5 5 -10 10 -10 6 0 10 5 10 10 0 6 -4 10 -10 10 -5 0
-10 -4 -10 -10z"/>
<path d="M2390 1075 c-8 -9 -8 -15 -2 -15 12 0 26 19 19 26 -2 2 -10 -2 -17
-11z"/>
<path d="M2570 1070 c-13 -8 -12 -10 3 -10 9 0 17 5 17 10 0 12 -1 12 -20 0z"/>
<path d="M3475 1070 c-3 -5 -1 -10 4 -10 6 0 11 5 11 10 0 6 -2 10 -4 10 -3 0
-8 -4 -11 -10z"/>
<path d="M2501 1024 c8 -28 7 -41 -6 -60 -8 -13 -20 -24 -25 -24 -16 0 -11
-17 6 -24 12 -4 15 -2 10 9 -3 9 0 15 9 15 17 0 30 -20 27 -41 -2 -10 6 -19
18 -22 17 -4 19 -3 10 8 -7 8 -7 15 -1 19 5 3 12 0 15 -6 4 -7 4 -3 2 10 -3
14 1 22 10 22 9 0 14 12 14 34 0 29 -4 34 -21 33 -16 -1 -19 -6 -14 -26 5 -21
4 -23 -9 -12 -9 7 -14 17 -11 21 3 5 1 11 -4 14 -4 3 -11 19 -14 36 -4 16 -11
30 -16 30 -6 0 -6 -14 0 -36z"/>
<path d="M3542 1030 c0 -19 2 -27 5 -17 2 9 2 25 0 35 -3 9 -5 1 -5 -18z"/>
<path d="M3581 1018 c1 -58 15 -75 15 -19 0 28 -3 51 -8 51 -4 0 -8 -15 -7
-32z"/>
<path d="M2390 1021 c0 -13 27 -21 47 -14 15 6 15 7 -3 14 -27 11 -44 11 -44
0z"/>
<path d="M3631 994 c0 -11 3 -14 6 -6 3 7 2 16 -1 19 -3 4 -6 -2 -5 -13z"/>
<path d="M4120 980 c-8 -15 -8 -20 3 -20 7 0 13 9 14 20 1 11 0 20 -2 20 -2 0
-9 -9 -15 -20z"/>
<path d="M2070 982 c0 -7 -10 -12 -22 -12 -15 0 -27 -10 -35 -27 -15 -32 -9
-41 17 -25 11 7 20 8 20 2 0 -5 -9 -14 -20 -20 -24 -13 -26 -52 -4 -74 23 -24
34 -20 41 15 4 21 8 26 14 18 4 -8 9 -11 11 -9 24 38 24 44 -1 68 -14 13 -20
21 -13 17 10 -5 11 0 6 22 -8 31 -14 43 -14 25z"/>
<path d="M3241 974 c0 -11 3 -14 6 -6 3 7 2 16 -1 19 -3 4 -6 -2 -5 -13z"/>
<path d="M3060 965 c0 -8 5 -15 10 -15 6 0 10 7 10 15 0 8 -4 15 -10 15 -5 0
-10 -7 -10 -15z"/>
<path d="M4341 965 c-1 -11 -4 -31 -8 -45 -6 -24 -6 -24 11 -7 14 14 16 23 8
45 -8 21 -11 23 -11 7z"/>
<path d="M2114 955 c3 -10 1 -24 -6 -32 -10 -13 -9 -15 7 -12 23 5 28 50 6 57
-10 3 -12 0 -7 -13z"/>
<path d="M2642 958 c-7 -7 -12 -22 -12 -34 0 -14 -8 -25 -20 -29 -23 -7 -27
-25 -5 -25 8 0 15 4 15 9 0 5 7 11 15 15 13 5 14 2 4 -15 -9 -19 -9 -19 9 -10
17 9 19 18 15 53 -7 51 -6 51 -21 36z"/>
<path d="M1893 931 c4 -16 2 -32 -4 -35 -5 -2 -4 -3 3 -2 17 3 24 66 7 66 -7
0 -9 -10 -6 -29z"/>
<path d="M4257 952 c-5 -7 -13 -9 -19 -6 -6 4 -9 1 -6 -7 3 -8 -2 -20 -9 -28
-15 -15 -13 -33 5 -39 7 -2 12 3 12 11 0 9 7 23 16 31 8 9 14 24 12 34 -3 12
-6 14 -11 4z"/>
<path d="M4113 926 c3 -7 1 -18 -5 -24 -6 -6 -6 -12 2 -17 7 -4 16 -2 20 5 9
15 1 50 -12 50 -6 0 -8 -6 -5 -14z"/>
<path d="M4525 899 c-4 -6 -5 -12 -2 -15 2 -3 7 2 10 11 7 17 1 20 -8 4z"/>
<path d="M3602 875 c0 -16 2 -22 5 -12 2 9 2 23 0 30 -3 6 -5 -1 -5 -18z"/>
<path d="M2711 874 c0 -11 3 -14 6 -6 3 7 2 16 -1 19 -3 4 -6 -2 -5 -13z"/>
<path d="M4001 874 c0 -11 3 -14 6 -6 3 7 2 16 -1 19 -3 4 -6 -2 -5 -13z"/>
<path d="M4295 881 c-10 -9 -4 -33 10 -47 8 -9 15 -27 15 -42 0 -20 3 -23 11
-15 9 9 8 20 -4 45 -14 29 -15 34 -2 44 8 6 15 14 15 17 0 7 -39 5 -45 -2z"/>
<path d="M2422 865 c-7 -8 -12 -18 -11 -21 0 -4 -5 -11 -13 -15 -9 -6 -10 -11
-2 -16 15 -11 26 -71 14 -78 -6 -3 -10 -11 -10 -18 0 -6 6 -2 14 8 11 16 17
17 29 7 9 -8 18 -9 21 -3 4 5 -2 16 -12 23 -11 7 -23 28 -26 46 -6 26 -5 32 9
32 9 0 22 6 29 13 11 10 11 15 0 25 -17 15 -26 15 -42 -3z"/>
<path d="M3570 846 c0 -20 4 -36 8 -36 12 0 14 58 2 65 -6 4 -10 -8 -10 -29z"/>
<path d="M4180 869 c0 -5 5 -7 10 -4 6 3 10 8 10 11 0 2 -4 4 -10 4 -5 0 -10
-5 -10 -11z"/>
<path d="M4347 858 c-4 -12 -2 -25 4 -28 5 -4 7 -14 3 -23 -9 -24 13 -21 26 2
7 14 7 22 0 26 -6 4 -8 15 -5 26 4 13 2 19 -8 19 -8 0 -17 -10 -20 -22z"/>
<path d="M4637 867 c-3 -8 -1 -20 4 -28 6 -10 9 -7 9 14 0 29 -5 35 -13 14z"/>
<path d="M3990 830 c0 -5 -6 -10 -14 -10 -8 0 -16 -6 -19 -12 -3 -9 -10 -8
-26 6 -11 11 -24 17 -27 13 -8 -8 6 -66 18 -73 6 -4 8 1 3 15 -5 17 -2 21 14
21 12 0 21 -7 21 -15 0 -8 -5 -15 -11 -15 -6 0 -8 -7 -5 -16 3 -8 2 -12 -4 -9
-6 3 -10 -1 -10 -10 0 -9 5 -13 10 -10 6 3 10 1 10 -6 0 -7 7 -4 15 7 14 18
14 18 15 -5 0 -23 1 -23 18 -8 10 10 24 17 30 17 7 0 12 6 12 13 0 8 4 7 10
-3 12 -19 13 -11 1 26 -5 16 -12 42 -15 57 -8 34 -25 27 -18 -8 2 -15 0 -25
-7 -25 -10 0 -15 20 -12 48 1 6 -1 12 -4 12 -3 0 -5 -4 -5 -10z"/>
<path d="M1363 823 c-18 -7 -16 -17 7 -55 l20 -33 0 48 c0 46 -3 50 -27 40z"/>
<path d="M2712 810 c-10 -17 -10 -20 3 -20 8 0 15 9 15 20 0 11 -1 20 -3 20
-1 0 -8 -9 -15 -20z"/>
<path d="M3610 826 c0 -2 7 -6 15 -10 8 -3 15 -1 15 4 0 6 -7 10 -15 10 -8 0
-15 -2 -15 -4z"/>
<path d="M3658 823 c6 -2 12 -11 12 -19 0 -8 5 -14 10 -14 6 0 10 -12 10 -26
0 -22 4 -25 27 -22 23 2 27 8 27 33 0 27 -3 30 -29 30 -17 0 -34 6 -38 13 -4
6 -13 12 -20 11 -9 0 -9 -2 1 -6z"/>
<path d="M2300 806 c0 -7 7 -13 15 -13 8 0 15 4 15 8 0 4 -7 9 -15 13 -9 3
-15 0 -15 -8z"/>
<path d="M3526 768 c-8 -32 -7 -38 5 -38 5 0 8 4 4 9 -3 5 -1 12 5 16 12 8 13
35 1 35 -5 0 -11 -10 -15 -22z"/>
<path d="M3630 776 c0 -9 5 -16 10 -16 6 0 10 4 10 9 0 6 -4 13 -10 16 -5 3
-10 -1 -10 -9z"/>
<path d="M3870 771 c0 -12 5 -21 10 -21 6 0 10 6 10 14 0 8 -4 18 -10 21 -5 3
-10 -3 -10 -14z"/>
<path d="M4265 780 c3 -5 8 -10 11 -10 2 0 4 5 4 10 0 6 -5 10 -11 10 -5 0 -7
-4 -4 -10z"/>
<path d="M3580 765 c0 -8 5 -15 10 -15 6 0 10 7 10 15 0 8 -4 15 -10 15 -5 0
-10 -7 -10 -15z"/>
<path d="M4075 769 c-4 -6 -5 -12 -2 -15 2 -3 7 2 10 11 7 17 1 20 -8 4z"/>
<path d="M2477 749 c4 -13 8 -18 11 -10 2 7 -1 18 -6 23 -8 8 -9 4 -5 -13z"/>
<path d="M3710 710 c0 -11 5 -20 10 -20 6 0 10 9 10 20 0 11 -4 20 -10 20 -5
0 -10 -9 -10 -20z"/>
<path d="M3882 721 c2 -7 7 -12 11 -12 12 1 9 15 -3 20 -7 2 -11 -2 -8 -8z"/>
<path d="M2742 699 c-8 -12 -19 -18 -29 -15 -24 10 -32 -2 -20 -29 15 -31 37
-41 29 -13 -4 17 -1 19 16 14 25 -8 30 0 23 37 -6 27 -6 27 -19 6z"/>
<path d="M2626 701 c-4 -5 3 -7 14 -4 23 6 26 13 6 13 -8 0 -17 -4 -20 -9z"/>
<path d="M3160 680 c0 -11 5 -20 10 -20 6 0 10 9 10 20 0 11 -4 20 -10 20 -5
0 -10 -9 -10 -20z"/>
<path d="M2535 660 c-4 -6 -2 -17 5 -25 10 -12 14 -11 30 3 15 12 16 18 7 24
-17 11 -35 10 -42 -2z"/>
<path d="M2784 659 c-4 -7 -3 -9 4 -5 5 3 13 0 15 -6 4 -9 6 -10 6 -1 1 17
-16 25 -25 12z"/>
<path d="M3445 650 c10 -11 20 -20 23 -20 3 0 -3 9 -13 20 -10 11 -20 20 -23
20 -3 0 3 -9 13 -20z"/>
<path d="M3855 650 c3 -5 10 -10 16 -10 5 0 9 5 9 10 0 6 -7 10 -16 10 -8 0
-12 -4 -9 -10z"/>
<path d="M3936 602 c-3 -6 -1 -14 5 -17 15 -10 25 3 12 16 -7 7 -13 7 -17 1z"/>
<path d="M2865 590 c3 -5 8 -10 11 -10 2 0 4 5 4 10 0 6 -5 10 -11 10 -5 0 -7
-4 -4 -10z"/>
<path d="M3475 581 c-3 -5 -1 -12 4 -15 5 -3 11 1 15 9 6 16 -9 21 -19 6z"/>
<path d="M4100 560 c0 -16 4 -30 9 -30 5 0 9 14 9 30 -1 17 -5 30 -10 30 -4 0
-8 -13 -8 -30z"/>
<path d="M4677 533 c-10 -9 -9 -23 2 -23 5 0 11 7 15 15 5 15 -5 20 -17 8z"/>
<path d="M3821 514 c0 -11 3 -14 6 -6 3 7 2 16 -1 19 -3 4 -6 -2 -5 -13z"/>
<path d="M3014 421 c4 -5 0 -12 -6 -14 -7 -3 -1 -6 14 -6 20 -1 26 3 22 14 -4
8 -13 15 -21 15 -8 0 -12 -4 -9 -9z"/>
<path d="M3180 420 c0 -5 5 -10 10 -10 6 0 10 5 10 10 0 6 -4 10 -10 10 -5 0
-10 -4 -10 -10z"/>
<path d="M3202 345 c0 -16 2 -22 5 -12 2 9 2 23 0 30 -3 6 -5 -1 -5 -18z"/>
<path d="M773 343 c-18 -7 -16 -28 2 -43 21 -17 32 -4 17 20 -9 14 -9 20 1 23
7 3 8 5 2 5 -5 0 -16 -2 -22 -5z"/>
<path d="M3352 260 c0 -19 2 -27 5 -17 2 9 2 25 0 35 -3 9 -5 1 -5 -18z"/>
<path d="M773 263 c-7 -2 -13 -10 -13 -16 0 -6 -7 -19 -17 -29 -18 -20 -6 -24
18 -5 11 9 35 61 26 56 -1 0 -8 -3 -14 -6z"/>
<path d="M626 77 c-31 -55 -37 -77 -21 -77 8 0 15 8 15 18 0 15 2 15 11 2 8
-12 9 -10 4 8 -4 13 -2 28 3 35 13 18 22 47 14 47 -4 0 -15 -15 -26 -33z"/>
<path d="M565 19 c-4 -6 -5 -12 -2 -15 2 -3 7 2 10 11 7 17 1 20 -8 4z"/>
</g>
</svg>
